<svg width="248" height="190" viewBox="0 0 248 190" fill="none" xmlns="http://www.w3.org/2000/svg">
<ellipse cx="123.964" cy="99.1969" rx="115.861" ry="43.992" transform="rotate(-25.8898 123.964 99.1969)" fill="#C7DEF6"/>
<path d="M89.1939 186.281L101.351 166.912L77.574 160L71.9702 186.281H89.1939Z" fill="#D0E6FC"/>
<path d="M181.292 186.281L175.688 160L151.917 166.912L164.069 186.281H181.292Z" fill="#D0E6FC"/>
<path d="M127.585 38.4561C118.606 38.4561 109.399 35.3734 100.014 29.208L99.1953 28.6703V27.6905C99.1953 12.4204 111.616 0 126.88 0C142.144 0 154.57 12.4204 154.57 27.6905V28.6106L153.824 29.1542C145.352 35.3555 136.588 38.4561 127.585 38.4561ZM102.852 26.7108C119.884 37.5779 135.626 37.5958 150.92 26.7705C150.436 13.9319 139.838 3.6383 126.886 3.6383C113.934 3.6383 103.365 13.902 102.852 26.7167V26.7108Z" fill="#D0E6FC"/>
<circle cx="126" cy="100" r="74" fill="white"/>
<circle cx="125.5" cy="99.5" r="83.5" fill="white"/>
<path fill-rule="evenodd" clip-rule="evenodd" d="M204.897 112.37C205.602 108.092 205.972 103.701 205.972 99.2262L205.966 99.2023C205.966 96.9023 205.87 94.6201 205.679 92.3678C205.673 92.2872 205.666 92.2065 205.658 92.1259C205.651 92.0452 205.643 91.9646 205.637 91.8839C205.428 89.6077 205.13 87.3614 204.735 85.145C204.711 84.9837 204.682 84.8284 204.652 84.673C204.042 81.3334 203.224 78.0715 202.208 74.8932C202.184 74.8182 202.16 74.7447 202.136 74.6712C202.112 74.5984 202.089 74.5255 202.065 74.4511C201.306 72.1271 200.452 69.851 199.49 67.6226C199.458 67.5389 199.421 67.4553 199.384 67.3717C199.365 67.3298 199.346 67.288 199.329 67.2462C197.333 62.6759 194.926 58.3267 192.148 54.2463L192.147 54.2453C192.063 54.1202 191.98 53.995 191.891 53.8699C190.152 51.3488 188.27 48.9292 186.257 46.6232C186.206 46.5634 186.154 46.5052 186.102 46.4469C186.049 46.3887 185.997 46.3304 185.946 46.2707C183.389 43.3732 180.617 40.6609 177.666 38.1577L177.619 38.1175C177.514 38.0281 177.405 37.9353 177.296 37.847C176.489 37.1719 175.665 36.5148 174.834 35.8696C173.227 34.6269 171.566 33.444 169.864 32.3268L169.864 32.3268C169.72 32.2312 169.577 32.1356 169.434 32.046C166.351 30.0507 163.131 28.2584 159.779 26.6991C157.796 25.7731 155.776 24.9307 153.709 24.166L153.172 23.9689C152.646 23.7777 152.12 23.5985 151.594 23.4193C149.121 22.5829 146.588 21.866 144.013 21.2745L143.386 21.1311C137.788 19.8945 131.969 19.2373 125.995 19.2373C124.92 19.2373 123.85 19.2612 122.781 19.303C122.594 19.307 122.406 19.3163 122.219 19.3256C122.126 19.3302 122.032 19.3349 121.938 19.3389C114.321 19.7152 106.985 21.161 100.079 23.5268C97.5516 24.3931 95.0902 25.3788 92.6886 26.4781C89.0204 28.1568 85.5016 30.1104 82.156 32.3029L81.457 32.7689C80.1308 33.6591 78.8344 34.5851 77.5678 35.5529C74.7241 37.7156 72.0297 40.0635 69.5086 42.5846C69.3055 42.7817 69.1083 42.9789 68.9171 43.182C65.697 46.4619 62.7577 50.0165 60.135 53.8102L60.1347 53.8107C59.9257 54.1152 59.7167 54.4197 59.5137 54.7242C53.42 63.811 49.1365 74.2181 47.1889 85.4258C47.1709 85.5244 47.1545 85.6214 47.1381 85.7185C47.1217 85.8156 47.1052 85.9127 47.0873 86.0113C46.7408 88.0903 46.472 90.1932 46.2927 92.326C46.2817 92.5198 46.2655 92.7084 46.2489 92.9014L46.2449 92.9473C46.0836 95.0144 46 97.1114 46 99.2203C46 100.887 46.0478 102.542 46.1494 104.179C46.1553 104.346 46.1673 104.519 46.1792 104.687C46.3704 107.471 46.699 110.213 47.165 112.913C47.1799 113.003 47.1963 113.092 47.2128 113.182C47.2292 113.272 47.2456 113.361 47.2606 113.451C48.6944 121.432 51.3111 129.002 54.9255 135.974C54.9643 136.048 55.0032 136.122 55.042 136.195C55.0808 136.268 55.1197 136.341 55.1585 136.416C56.5744 139.11 58.1396 141.715 59.8483 144.218C59.8931 144.284 59.9379 144.348 59.9827 144.412C60.0275 144.477 60.0723 144.541 60.1171 144.606C61.7421 146.966 63.4925 149.231 65.3565 151.393C65.4072 151.453 65.4594 151.513 65.5116 151.572C65.564 151.632 65.6163 151.692 65.6672 151.752C68.3914 154.882 71.3606 157.798 74.5389 160.468C74.6644 160.576 74.7898 160.683 74.9153 160.785C75.6023 161.352 76.2953 161.908 77.0003 162.457C79.2645 164.22 81.6303 165.857 84.0797 167.368C84.114 167.389 84.1486 167.411 84.1836 167.433C84.2769 167.491 84.3725 167.551 84.4681 167.607C88.3991 170.003 92.5572 172.064 96.9004 173.761C98.3761 174.34 99.8756 174.872 101.393 175.362C101.425 175.373 101.458 175.383 101.49 175.394C101.617 175.437 101.742 175.479 101.871 175.517C104.368 176.306 106.919 176.975 109.518 177.519C109.596 177.533 109.675 177.55 109.754 177.566C109.833 177.583 109.912 177.599 109.99 177.614C115.158 178.666 120.511 179.215 125.989 179.215C127.584 179.215 129.167 179.167 130.732 179.078C130.906 179.072 131.085 179.06 131.258 179.048C138.254 178.588 145.005 177.238 151.391 175.099C151.6 175.033 151.809 174.962 152.017 174.89L152.019 174.89C153.399 174.412 154.767 173.904 156.111 173.354C158.847 172.243 161.506 170.983 164.081 169.585C164.158 169.542 164.235 169.5 164.312 169.457C164.53 169.338 164.749 169.218 164.965 169.095C168.884 166.902 172.6 164.387 176.077 161.591C179.632 158.736 182.935 155.581 185.952 152.164C186.173 151.919 186.388 151.674 186.603 151.423C190.134 147.325 193.259 142.868 195.905 138.107C196.013 137.915 196.12 137.724 196.222 137.533C198.6 133.184 200.583 128.59 202.13 123.792L202.328 123.165C203.355 119.867 204.18 116.48 204.783 113.021C204.825 112.806 204.861 112.585 204.897 112.37ZM98.872 164.788C107.642 168.498 116.968 170.38 126.581 170.38C136.199 170.38 145.519 168.498 154.289 164.788C162.766 161.203 170.378 156.072 176.919 149.53C183.461 142.988 188.593 135.377 192.178 126.899C195.888 118.129 197.769 108.809 197.769 99.1909C197.769 89.5724 195.888 80.2526 192.178 71.4824C188.593 63.005 183.461 55.3938 176.919 48.852C170.378 42.3102 162.766 37.1784 154.289 33.5938C145.519 29.8838 136.199 28.002 126.581 28.002C116.962 28.002 107.642 29.8838 98.872 33.5938C90.3946 37.1784 82.7834 42.3102 76.2417 48.852C69.6999 55.3938 64.568 63.005 60.9835 71.4824C57.2735 80.2526 55.3916 89.5724 55.3916 99.1909C55.3916 108.809 57.2735 118.129 60.9835 126.899C64.568 135.377 69.6999 142.988 76.2417 149.53C82.7834 156.072 90.3946 161.203 98.872 164.788Z" fill="#C7DEF6"/>
<path d="M153.405 119.661H153.994V119.502C154.135 119.422 154.264 119.312 154.368 119.172L154.37 119.17C154.76 118.638 154.641 117.888 154.112 117.499C154.112 117.499 154.112 117.499 154.112 117.499C154.112 117.499 154.112 117.499 154.112 117.499L127.3 97.8083L127.299 97.8081C126.767 97.4179 126.017 97.5365 125.629 98.066C125.239 98.5979 125.357 99.3478 125.886 99.7362C125.887 99.7362 125.887 99.7363 125.887 99.7364L152.693 119.423C152.915 119.593 153.169 119.661 153.405 119.661Z" fill="#D0E6FC" stroke="#D0E6FC" stroke-width="1.17626"/>
<path d="M135.042 100.398C136.138 95.7238 133.238 91.0461 128.564 89.9499C123.89 88.8536 119.213 91.7539 118.116 96.4278C117.02 101.102 119.92 105.779 124.594 106.876C129.268 107.972 133.946 105.072 135.042 100.398Z" fill="#D0E6FC"/>
<path d="M125.401 91.3527C125.401 92.0121 125.933 92.5443 126.592 92.5443C127.252 92.5443 127.784 92.0121 127.784 91.3527V68.4774C127.784 67.818 127.252 67.2859 126.592 67.2859C125.933 67.2859 125.401 67.8181 125.401 68.4774V91.3527Z" fill="#D0E6FC" stroke="#D0E6FC" stroke-width="1.17626"/>
<path d="M87.5092 99.9639H119.627C120.286 99.9639 120.818 99.4317 120.818 98.7723C120.818 98.113 120.286 97.5808 119.627 97.5808H87.5092C86.8498 97.5808 86.3176 98.113 86.3176 98.7723C86.3176 99.4317 86.8498 99.9639 87.5092 99.9639Z" fill="#D0E6FC" stroke="#D0E6FC" stroke-width="1.17626"/>
<path d="M126.581 104.084C123.403 104.084 120.822 101.497 120.822 98.3246C120.822 95.1523 123.409 92.5654 126.581 92.5654C129.753 92.5654 132.34 95.1523 132.34 98.3246C132.34 101.497 129.753 104.084 126.581 104.084Z" fill="#C7DEF6"/>
<path d="M127.012 33.1758H126.749C126.561 33.1758 126.408 33.3282 126.408 33.5163V43.3977C126.408 43.5858 126.561 43.7382 126.749 43.7382H127.012C127.2 43.7382 127.352 43.5858 127.352 43.3977V33.5163C127.352 33.3282 127.2 33.1758 127.012 33.1758Z" fill="#D0E6FC"/>
<path d="M110.048 35.3712L109.794 35.4392C109.613 35.4879 109.505 35.6746 109.553 35.8563L112.111 45.4009C112.16 45.5826 112.346 45.6904 112.528 45.6417L112.782 45.5737C112.964 45.525 113.071 45.3383 113.023 45.1566L110.465 35.612C110.417 35.4303 110.23 35.3225 110.048 35.3712Z" fill="#D0E6FC"/>
<path d="M94.2296 41.8809L94.0019 42.0124C93.8391 42.1064 93.7833 42.3147 93.8773 42.4775L98.818 51.035C98.912 51.1979 99.1203 51.2537 99.2832 51.1597L99.5108 51.0283C99.6737 50.9342 99.7295 50.726 99.6354 50.5631L94.6948 42.0056C94.6007 41.8427 94.3925 41.7869 94.2296 41.8809Z" fill="#D0E6FC"/>
<path d="M80.644 52.2647L80.4581 52.4506C80.3251 52.5836 80.3251 52.7992 80.4581 52.9322L87.4453 59.9194C87.5782 60.0524 87.7939 60.0524 87.9268 59.9194L88.1127 59.7335C88.2457 59.6005 88.2457 59.3849 88.1127 59.2519L81.1255 52.2647C80.9925 52.1318 80.7769 52.1318 80.644 52.2647Z" fill="#D0E6FC"/>
<path d="M70.1987 65.8173L70.0672 66.0449C69.9732 66.2078 70.029 66.4161 70.1919 66.5101L78.7494 71.4508C78.9123 71.5448 79.1205 71.489 79.2146 71.3262L79.346 71.0985C79.44 70.9356 79.3842 70.7274 79.2214 70.6333L70.6638 65.6926C70.501 65.5986 70.2927 65.6544 70.1987 65.8173Z" fill="#D0E6FC"/>
<path d="M63.62 81.6066L63.552 81.8605C63.5033 82.0422 63.6111 82.2289 63.7928 82.2776L73.3375 84.8351C73.5191 84.8838 73.7059 84.7759 73.7545 84.5943L73.8226 84.3404C73.8712 84.1587 73.7634 83.972 73.5818 83.9233L64.0371 81.3658C63.8554 81.3172 63.6687 81.425 63.62 81.6066Z" fill="#D0E6FC"/>
<path d="M61.3545 98.5577V98.8206C61.3545 99.0087 61.5069 99.1611 61.695 99.1611H71.5764C71.7645 99.1611 71.9169 99.0087 71.9169 98.8206V98.5577C71.9169 98.3697 71.7645 98.2172 71.5764 98.2172H61.695C61.5069 98.2172 61.3545 98.3697 61.3545 98.5577Z" fill="#D0E6FC"/>
<path d="M63.5445 115.516L63.6125 115.77C63.6612 115.951 63.8479 116.059 64.0296 116.01L73.5743 113.453C73.7559 113.404 73.8637 113.218 73.8151 113.036L73.747 112.782C73.6984 112.6 73.5116 112.493 73.33 112.541L63.7853 115.099C63.6036 115.147 63.4958 115.334 63.5445 115.516Z" fill="#D0E6FC"/>
<path d="M70.0529 131.331L70.1843 131.559C70.2783 131.721 70.4865 131.777 70.6494 131.683L79.2078 126.744C79.3707 126.65 79.4265 126.442 79.3325 126.279L79.2011 126.051C79.1071 125.888 78.8989 125.833 78.736 125.927L70.1776 130.866C70.0147 130.96 69.9589 131.168 70.0529 131.331Z" fill="#D0E6FC"/>
<path d="M80.4435 144.931L80.6294 145.117C80.7623 145.25 80.9779 145.25 81.111 145.117L88.0994 138.131C88.2324 137.998 88.2324 137.782 88.0994 137.649L87.9136 137.463C87.7806 137.33 87.565 137.33 87.432 137.463L80.4436 144.449C80.3106 144.582 80.3106 144.798 80.4435 144.931Z" fill="#D0E6FC"/>
<path d="M93.994 155.367L94.2217 155.499C94.3846 155.593 94.5928 155.537 94.6869 155.374L99.6276 146.817C99.7216 146.654 99.6658 146.445 99.5029 146.351L99.2753 146.22C99.1124 146.126 98.9041 146.182 98.8101 146.345L93.8694 154.902C93.7754 155.065 93.8312 155.273 93.994 155.367Z" fill="#D0E6FC"/>
<path d="M109.781 161.948L110.035 162.016C110.217 162.065 110.404 161.957 110.452 161.776L113.01 152.231C113.059 152.049 112.951 151.863 112.769 151.814L112.515 151.746C112.334 151.697 112.147 151.805 112.098 151.987L109.541 161.531C109.492 161.713 109.6 161.9 109.781 161.948Z" fill="#D0E6FC"/>
<path d="M126.725 164.22H126.988C127.176 164.22 127.328 164.067 127.328 163.879V153.998C127.328 153.81 127.176 153.657 126.988 153.657H126.725C126.537 153.657 126.384 153.81 126.384 153.998V163.879C126.384 164.067 126.537 164.22 126.725 164.22Z" fill="#D0E6FC"/>
<path d="M143.688 162.023L143.942 161.955C144.124 161.907 144.232 161.72 144.183 161.538L141.625 151.994C141.577 151.812 141.39 151.704 141.208 151.753L140.954 151.821C140.773 151.869 140.665 152.056 140.714 152.238L143.271 161.783C143.32 161.964 143.507 162.072 143.688 162.023Z" fill="#D0E6FC"/>
<path d="M159.51 155.509L159.737 155.377C159.9 155.283 159.956 155.075 159.862 154.912L154.921 146.355C154.827 146.192 154.619 146.136 154.456 146.23L154.228 146.361C154.066 146.455 154.01 146.664 154.104 146.827L159.044 155.384C159.139 155.547 159.347 155.603 159.51 155.509Z" fill="#D0E6FC"/>
<path d="M173.099 145.128L173.285 144.942C173.418 144.809 173.418 144.593 173.285 144.46L166.297 137.473C166.164 137.34 165.949 137.34 165.816 137.473L165.63 137.659C165.497 137.792 165.497 138.008 165.63 138.141L172.617 145.128C172.75 145.261 172.966 145.261 173.099 145.128Z" fill="#D0E6FC"/>
<path d="M183.543 131.581L183.674 131.353C183.768 131.191 183.713 130.982 183.55 130.888L174.992 125.948C174.829 125.854 174.621 125.909 174.527 126.072L174.396 126.3C174.302 126.463 174.357 126.671 174.52 126.765L183.078 131.706C183.241 131.8 183.449 131.744 183.543 131.581Z" fill="#D0E6FC"/>
<path d="M190.12 115.787L190.188 115.533C190.237 115.351 190.129 115.165 189.947 115.116L180.403 112.558C180.221 112.51 180.034 112.618 179.986 112.799L179.918 113.053C179.869 113.235 179.977 113.422 180.158 113.47L189.703 116.028C189.885 116.076 190.072 115.969 190.12 115.787Z" fill="#D0E6FC"/>
<path d="M192.387 98.8319V98.5691C192.387 98.381 192.235 98.2285 192.047 98.2285H182.165C181.977 98.2285 181.825 98.381 181.825 98.5691V98.8319C181.825 99.02 181.977 99.1724 182.165 99.1724H192.047C192.235 99.1724 192.387 99.02 192.387 98.8319Z" fill="#D0E6FC"/>
<path d="M190.204 81.8748L190.135 81.6209C190.087 81.4393 189.9 81.3315 189.718 81.3801L180.174 83.9376C179.992 83.9863 179.884 84.173 179.933 84.3547L180.001 84.6086C180.05 84.7902 180.236 84.8981 180.418 84.8494L189.963 82.2919C190.144 82.2432 190.252 82.0565 190.204 81.8748Z" fill="#D0E6FC"/>
<path d="M183.689 66.0587L183.558 65.831C183.464 65.6682 183.256 65.6124 183.093 65.7064L174.535 70.6471C174.372 70.7411 174.317 70.9494 174.411 71.1123L174.542 71.3399C174.636 71.5028 174.844 71.5586 175.007 71.4646L183.565 66.5239C183.728 66.4298 183.783 66.2216 183.689 66.0587Z" fill="#D0E6FC"/>
<path d="M173.299 52.4666L173.113 52.2808C172.98 52.1478 172.765 52.1479 172.632 52.2809L165.646 59.2693C165.513 59.4023 165.513 59.6179 165.646 59.7509L165.832 59.9367C165.965 60.0697 166.18 60.0696 166.313 59.9366L173.299 52.9482C173.432 52.8152 173.432 52.5996 173.299 52.4666Z" fill="#D0E6FC"/>
<path d="M159.75 42.0263L159.522 41.8949C159.36 41.8008 159.151 41.8566 159.057 42.0195L154.117 50.577C154.023 50.7399 154.078 50.9482 154.241 51.0422L154.469 51.1736C154.632 51.2677 154.84 51.2119 154.934 51.049L159.875 42.4915C159.969 42.3286 159.913 42.1203 159.75 42.0263Z" fill="#D0E6FC"/>
<path d="M143.969 35.4443L143.715 35.3762C143.533 35.3275 143.347 35.4354 143.298 35.617L140.741 45.1617C140.692 45.3434 140.8 45.5301 140.981 45.5788L141.235 45.6468C141.417 45.6955 141.604 45.5877 141.652 45.406L144.21 35.8613C144.259 35.6797 144.151 35.4929 143.969 35.4443Z" fill="#D0E6FC"/>
</svg>
