<svg width="308" height="329" viewBox="0 0 308 329" fill="none" xmlns="http://www.w3.org/2000/svg">
<ellipse cx="134" cy="310.5" rx="134" ry="18.5" fill="#D0DBFC"/>
<path d="M196.78 0H75.4301C63.5228 0 53.8701 9.65274 53.8701 21.56V288.97C53.8701 300.877 63.5228 310.53 75.4301 310.53H196.78C208.687 310.53 218.34 300.877 218.34 288.97V21.56C218.34 9.65274 208.687 0 196.78 0Z" fill="#083EB6"/>
<path d="M198.63 7H74.0201C66.4482 7 60.3101 13.1382 60.3101 20.71V290.36C60.3101 297.932 66.4482 304.07 74.0201 304.07H198.63C206.202 304.07 212.34 297.932 212.34 290.36V20.71C212.34 13.1382 206.202 7 198.63 7Z" fill="#BBDCFF"/>
<path d="M170.06 16.1302H103.16C99.1902 16.1302 95.9602 12.9102 95.9602 8.9302V4.2002H177.26V8.9202C177.26 12.9002 174.04 16.1202 170.06 16.1202V16.1302Z" fill="#083EB6"/>
<path d="M307.53 52.7199C305.26 30.6199 265.34 24.4999 227.08 29.0299C188.82 33.5599 187.34 42.2399 188.33 68.3299C188.65 76.8999 191.01 83.6899 194.82 89.0499C192.47 97.0699 183.04 98.7199 184.35 99.9799C191.09 106.45 202.97 100.51 205.83 98.9299C224.29 109.77 253.55 108.18 274.66 105.2C302.71 101.24 310.02 76.9499 307.53 52.7199Z" fill="#083EB6"/>
<path d="M231.14 66.7499C231.14 68.9899 229.32 70.8099 227.08 70.8099C224.84 70.8099 223.02 68.9899 223.02 66.7499C223.02 64.5099 224.84 62.6899 227.08 62.6899C229.32 62.6899 231.14 64.5099 231.14 66.7499Z" fill="white"/>
<path d="M251.19 66.7499C251.19 68.9899 249.37 70.8099 247.13 70.8099C244.89 70.8099 243.07 68.9899 243.07 66.7499C243.07 64.5099 244.89 62.6899 247.13 62.6899C249.37 62.6899 251.19 64.5099 251.19 66.7499Z" fill="white"/>
<path d="M270.48 66.7499C270.48 68.9899 268.66 70.8099 266.42 70.8099C264.18 70.8099 262.36 68.9899 262.36 66.7499C262.36 64.5099 264.18 62.6899 266.42 62.6899C268.66 62.6899 270.48 64.5099 270.48 66.7499Z" fill="white"/>
<path d="M122.806 127.03C123.216 126.38 138.756 134.18 156.216 123.98C173.676 113.78 163.476 221.19 163.476 221.19L162.056 276.94L160.076 303.86H116.576L107.646 219.13C107.646 219.13 116.736 136.64 122.806 127.03Z" fill="#5CABFF"/>
<path d="M201.366 142.88C194.256 136.77 161.556 124.36 161.556 124.36L156.216 133.9C156.216 133.9 157.946 252.21 157.056 276.58V303.86H196.966L197.166 242.25C208.706 239.32 217.576 234.46 222.456 229.12C227.986 223.06 229.326 219.65 229.326 211.59C229.326 203.53 208.486 148.99 201.376 142.88H201.366Z" fill="white"/>
<path d="M119.216 231.12C119.596 230.51 119.796 230.18 119.796 230.18V125.42C119.796 125.42 87.0861 137.83 79.9861 143.94C72.8761 150.05 52.2161 206.54 52.0161 214.59C51.2361 246.54 79.0261 286.85 79.0261 286.85C79.0261 286.85 79.9761 286.45 81.6261 285.29C81.0861 292.73 80.1661 303.86 80.1661 303.86H123.526C123.526 303.86 123.666 270.75 123.526 269.24C123.436 268.34 121.106 247.72 119.226 231.13L119.216 231.12Z" fill="white"/>
<path d="M188.786 202.61L181.476 206.94C181.306 207.04 181.096 207.04 180.926 206.94L173.206 202.6C173.036 202.5 172.926 202.32 172.926 202.12V185.93C172.926 185.63 173.166 185.38 173.476 185.38H188.506C188.806 185.38 189.056 185.62 189.056 185.93V202.13C189.056 202.32 188.956 202.5 188.786 202.6V202.61Z" fill="#D5E1ED"/>
<path d="M188.786 202.61L181.476 206.94C181.306 207.04 181.096 207.04 180.926 206.94L173.206 202.6C173.036 202.5 172.926 202.32 172.926 202.12V189.2C172.926 188.9 173.166 188.65 173.476 188.65H188.506C188.806 188.65 189.056 188.89 189.056 189.2V202.13C189.056 202.32 188.956 202.5 188.786 202.6V202.61Z" fill="#B8DDFF"/>
<g opacity="0.5">
<path d="M157.056 277.65V115.26C157.056 115.26 158.426 117.78 163.456 122.88C169.736 129.25 175.126 138.86 175.126 138.86L163.776 136.66L178.516 151.49L167.426 216.68L159.576 217.85L164.546 233.63L157.056 277.65Z" fill="#8FA7D7"/>
</g>
<g opacity="0.5">
<path d="M114.796 122.77C108.516 129.14 103.126 138.76 103.126 138.76L114.476 136.56L99.7361 151.39L123.516 274.33L121.196 115.15C121.196 115.15 119.826 117.67 114.796 122.77Z" fill="#8FA7D7"/>
</g>
<path d="M157.056 270.84L154.586 114C154.586 114 157.136 115.09 162.166 120.19C168.446 126.56 172.656 137.6 172.656 137.6L161.306 135.4L176.046 150.23L165.486 217.3L160.076 218.55L164.036 226.5L157.056 270.83V270.84Z" fill="white"/>
<path d="M123.516 269.24V114C123.516 114 120.966 115.09 115.936 120.19C109.656 126.56 105.446 137.6 105.446 137.6L116.796 135.4L102.056 150.23L123.516 269.23V269.24Z" fill="white"/>
<path d="M141.166 281.91C131.266 281.91 123.696 280.42 123.586 280.4V279.49C123.756 279.52 140.996 282.93 157.056 279.45V280.36C151.616 281.54 146.156 281.91 141.166 281.91Z" fill="white"/>
<path d="M138.976 141.41C130.036 141.41 123.616 138.29 123.516 138.24V137.14C123.666 137.22 139.506 144.74 154.936 136.46L154.956 137.52C149.326 140.54 143.896 141.41 138.976 141.41Z" fill="white"/>
<path opacity="0.5" d="M66.416 214.64C66.416 214.64 78.226 216.91 84.366 223.05C84.366 223.05 69.066 215.4 66.416 214.64Z" fill="#8FA7D7"/>
<path d="M97.716 267.27L100.196 270.27C100.196 270.27 95.2161 282.46 89.6861 288.89L85.196 282.65C85.196 282.65 92.096 277.39 97.716 267.26V267.27Z" fill="#FFCCA9"/>
<path opacity="0.5" d="M80.3963 214.64C80.6763 215.11 84.6463 218.89 85.9663 222.57L79.7363 215.49L80.3963 214.64Z" fill="#8FA7D7"/>
<path opacity="0.5" d="M92.9562 173.65C92.9262 173.08 89.3262 220.63 87.7862 226.85L99.7362 263.39C99.7362 263.39 93.4262 277.65 81.6162 285.3C81.6162 285.3 89.1762 284.17 101.076 267.74C101.076 267.74 95.1262 284.74 86.7162 291.92C86.7162 291.92 99.9362 284.08 103.816 260.28L91.3462 226.86C91.3462 226.86 93.5162 184.24 92.9562 173.66V173.65Z" fill="#8FA7D7"/>
<path opacity="0.5" d="M197.156 242.25L191.406 243.91L192.286 249.06L197.156 247.18V242.25Z" fill="#8FA7D7"/>
<path opacity="0.5" d="M195.776 206.57L191.406 170.76L192.766 207.71C178.096 213.28 162.296 219.93 162.296 219.93C162.296 219.93 170.696 217.77 180.996 215.02C191.306 212.27 210.466 201.51 210.466 201.51C206.556 202.66 201.336 204.5 195.776 206.57Z" fill="#8FA7D7"/>
<path opacity="0.1" d="M216.51 171.87C216.51 171.87 225.74 196.73 225.84 212.86C225.88 218.86 222.45 223.82 219.98 225.61C195.93 243.09 166.29 243.71 166.29 243.71C166.29 243.71 166.05 247.71 165.48 248.47C165.48 248.47 217.96 244.99 227.99 222.27C227.99 222.27 230.27 218.65 229.75 212.96C228.77 202.23 222.81 187.17 216.5 171.87H216.51Z" fill="#8FA7D7"/>
<path opacity="0.1" d="M70.3499 162.74C70.7199 161.79 55.3899 200.81 55.5299 214.85C55.8099 244.33 77.5799 281.53 82.0699 285.5L79.4699 287.06C79.4699 287.06 50.5699 244.13 52.4599 214.8C52.8299 209 53.5399 206.44 70.3399 162.73L70.3499 162.74Z" fill="#8FA7D7"/>
<path d="M165.63 248.24C167.33 230.95 162.36 220.3 162.94 220.04C168.55 217.51 182.5 212.03 193.73 207.67L194.21 182.21L136.82 179.89L135.52 264.66L192.7 262.33L193.05 243.83C178.92 247.13 165.63 248.24 165.63 248.24Z" fill="#AE376D"/>
<path d="M174.92 181.43L174.94 180.4L159.38 179.51L159.35 180.8L174.92 181.43Z" fill="#A1B5BF"/>
<path d="M161.36 182.52C161.36 182.7 161.21 182.84 161.04 182.84C160.87 182.84 160.72 182.69 160.72 182.52C160.72 182.35 160.87 182.2 161.04 182.2C161.21 182.2 161.36 182.35 161.36 182.52Z" fill="#A1B5BF"/>
<path d="M173.7 183.04C173.7 183.15 173.61 183.24 173.5 183.24C173.39 183.24 173.3 183.15 173.3 183.04C173.3 182.93 173.39 182.84 173.5 182.84C173.61 182.84 173.7 182.93 173.7 183.04Z" fill="#A1B5BF"/>
<path d="M164.6 93.7801C162.97 99.6701 160.08 104.19 158.82 103.84C158.82 103.84 159.7 100.09 160.88 94.0901C162.25 87.1301 162.44 82.2201 165.29 82.4801C166.58 82.6001 166.23 87.8901 164.6 93.7801Z" fill="#F0BA92"/>
<g opacity="0.6">
<path d="M162.41 91.3398C160.92 97.2698 160.08 104.19 158.82 103.84C158.82 103.84 160.07 98.4898 161.25 92.4898C162.62 85.5298 162.48 83.1198 165.32 83.3898C165.32 83.3898 164.21 84.1398 162.41 91.3498V91.3398Z" fill="#D88D64"/>
</g>
<path d="M114.62 93.78C116.25 99.67 118.97 104.22 120.22 103.88C120.22 103.88 118.89 99.02 118.1 93.91C117.01 86.9 116.78 82.22 113.93 82.48C112.64 82.6 112.99 87.89 114.62 93.78Z" fill="#F0BA92"/>
<g opacity="0.6">
<path d="M115.93 90.7001C117.42 96.6301 118.97 104.23 120.22 103.88C120.22 103.88 118.89 97.7701 117.71 91.7701C116.34 84.8101 116.57 83.1601 113.72 83.4201C113.72 83.4201 114.12 83.4901 115.93 90.6901V90.7001Z" fill="#D88D64"/>
</g>
<path d="M155.26 128.02C155.26 128.02 153.1 133.71 139.51 133.71C125.92 133.71 123.97 128.36 123.97 128.36V111.07H155.05L155.27 128.01L155.26 128.02Z" fill="#F0BA92"/>
<g opacity="0.6">
<path d="M155.06 115.47C152.25 121.33 141.28 125.94 139.5 125.94C137.72 125.94 128.4 122.4 123.96 115.57V106.55H155.04L155.06 115.47Z" fill="#D88D64"/>
</g>
<path d="M158.82 103.8C153.64 120.82 139.5 121.1 139.5 121.1C139.5 121.1 124.56 121.06 120.1 103.39C117.16 91.73 110.07 73.88 118.56 60.65C123.37 53.16 158.32 50.17 162.44 60.65C166.56 71.13 161.85 93.82 158.81 103.8H158.82Z" fill="#FFCCA9"/>
<path d="M147.1 103.21C147.67 103.69 145.91 109.84 139.51 109.91C134.08 109.97 131.36 104.39 131.85 103.56C132.46 102.53 134.62 103.23 139.29 103.23C143.96 103.23 146.48 102.7 147.1 103.22V103.21Z" fill="white"/>
<path d="M139.43 110.22C135.96 110.22 133.42 107.96 132.19 105.83C131.7 104.98 131.28 103.9 131.58 103.39C132.08 102.55 133.24 102.62 135.34 102.75C136.39 102.82 137.69 102.9 139.29 102.9C141.2 102.9 142.72 102.81 143.95 102.74C145.87 102.63 146.84 102.57 147.3 102.96C147.74 103.33 147.4 104.44 147.24 104.9C146.93 105.78 145.08 110.16 139.51 110.22C139.48 110.22 139.46 110.22 139.43 110.22ZM133.55 103.3C132.79 103.3 132.31 103.39 132.12 103.71C132.05 103.86 132.19 104.68 132.93 105.84C133.5 106.72 135.64 109.59 139.42 109.59C139.45 109.59 139.47 109.59 139.5 109.59C143.2 109.55 145.11 107.4 145.93 106.13C146.74 104.86 146.95 103.7 146.87 103.44C146.56 103.24 145.42 103.3 143.99 103.38C142.76 103.45 141.22 103.54 139.29 103.54C137.67 103.54 136.36 103.46 135.3 103.39C134.61 103.35 134.03 103.31 133.55 103.31V103.3Z" fill="#D3976E"/>
<path d="M139.52 98.0102C138.77 97.4702 137.61 96.2602 138.28 94.2602C138.86 92.5402 138.94 89.2302 138.94 89.2002H139.57C139.57 89.3502 139.49 92.6502 138.87 94.4602C138.35 95.9902 139.13 96.9502 139.88 97.4902L139.51 98.0102H139.52Z" fill="#D88D64"/>
<path d="M164.06 224.86L158.2 225.75C150.72 226.4 147.95 220.64 141.34 221.49C134.73 222.34 135.52 224.97 135.52 224.97C131.14 225.09 132.29 231.15 132.29 231.15C130.22 234.23 132.37 237.79 132.37 237.79C130.86 239.92 132.87 243.15 132.87 243.15C133.43 246.66 137.69 249.56 142.27 250.05C142.42 250.07 142.58 250.08 142.74 250.09C142.9 250.1 143.07 250.11 143.23 250.12C143.4 250.12 143.58 250.12 143.75 250.12C143.99 250.12 144.23 250.11 144.48 250.09C144.5 250.09 144.51 250.09 144.53 250.09C144.53 250.09 144.56 250.09 144.57 250.09C144.78 250.07 144.98 250.06 145.19 250.03C150.72 249.28 165.95 243.11 165.95 243.11C166.19 231.22 164.06 224.87 164.06 224.87V224.86Z" fill="#FFCCA9"/>
<path d="M135.52 224.96C135.52 224.96 139.31 225.7 141.37 225.84C143.42 225.98 148.19 226.77 149.31 227.04C149.31 227.04 143.14 226.52 141.33 226.41C139.95 226.32 134.95 225.01 135.52 224.95V224.96Z" fill="#D88D64"/>
<path d="M136.71 232.83C136.71 232.83 133.92 231.69 133.11 230.58C132.29 229.47 132.26 228.21 132.24 228.29C131.99 229.36 132.3 231.15 132.3 231.15L136.71 232.83Z" fill="#D88D64"/>
<path d="M136.82 239.44C136.82 239.44 134.17 238.27 133.09 237.41C131.88 236.45 131.45 234.96 131.46 235.04C131.6 236.5 132.41 237.76 132.41 237.76L136.82 239.44Z" fill="#D88D64"/>
<path d="M137.32 244.81C137.32 244.81 134.67 243.64 133.59 242.78C132.38 241.82 131.84 240.15 131.85 240.24C131.99 241.7 132.91 243.13 132.91 243.13L137.32 244.81Z" fill="#D88D64"/>
<path d="M136.07 223.41C136.07 223.41 135.4 224.95 136.61 225.16L136.81 225.44L135.52 224.96C135.52 224.96 135.4 224.08 136.07 223.41Z" fill="#D88D64"/>
<g opacity="0.1">
<path d="M115.09 152.95L115.37 135.98L113.95 136.25L113.67 153.05C105.98 154.37 104.44 168.02 104.18 185.44L104.16 186.41C104.16 189.97 106.05 190.85 108.47 191.23C109.35 191.37 110.27 191.42 111.13 191.45C111.36 191.96 111.86 192.32 112.45 192.32C113.25 192.32 113.9 191.67 113.9 190.87V189.69C113.9 188.89 113.25 188.24 112.45 188.24C111.72 188.24 111.14 188.79 111.04 189.49C109.11 189.39 106.74 188.98 105.97 187.56C105.22 186.17 105.66 183.22 105.72 181.23C106.23 166 107.88 154.43 114.95 154.43C122.02 154.43 125.31 165.97 125.82 181.17C125.88 183.08 126.22 185.88 125.5 187.3C124.85 188.59 123.12 189.16 121.39 189.39C121.2 188.71 120.55 188.24 119.82 188.33C119.02 188.43 118.46 189.15 118.55 189.94L118.69 191.12C118.79 191.92 119.51 192.48 120.3 192.39C120.9 192.32 121.38 191.88 121.52 191.33C124.29 190.95 127.42 189.72 127.32 186.09L127.3 184.66C127.3 184.66 127.31 184.62 127.32 184.59C126.98 166.79 123.5 153.13 115.07 152.96L115.09 152.95Z" fill="#0E3368"/>
<path d="M183.96 166.67C182.53 133.04 166.92 125.4 166.26 125.08C166.26 125.08 167.16 125.8 171.08 131.21C175.15 136.85 181.48 147.01 182.34 166.7C178.97 167.17 176.38 170.06 176.38 173.55C176.38 177.38 179.48 180.48 183.31 180.48C187.14 180.48 190.24 177.38 190.24 173.55C190.24 169.95 187.49 166.99 183.98 166.66L183.96 166.67Z" fill="#0E3368"/>
<path d="M192.97 243.82L192.69 262.46L140.85 264.44L140.77 270.99L196.23 268.64V243.01L192.97 243.82Z" fill="#0E3368"/>
</g>
<path d="M125.38 182.83C125.03 164.91 122.35 151.31 113.79 151.31C105.23 151.31 102.49 165.36 102.22 183.69L102.2 184.66C102.2 188.22 104.09 189.1 106.51 189.48C107.39 189.62 108.31 189.67 109.17 189.7C109.4 190.21 109.9 190.57 110.49 190.57C111.29 190.57 111.94 189.92 111.94 189.12V187.94C111.94 187.14 111.29 186.49 110.49 186.49C109.76 186.49 109.18 187.04 109.08 187.74C107.15 187.64 104.78 187.23 104.01 185.81C103.26 184.42 103.7 181.47 103.76 179.48C104.27 164.25 106.74 152.8 113.81 152.8C120.88 152.8 123.34 164.22 123.86 179.42C123.92 181.33 124.26 184.13 123.54 185.55C122.89 186.84 121.16 187.41 119.43 187.64C119.24 186.96 118.59 186.49 117.86 186.58C117.06 186.68 116.5 187.4 116.59 188.19L116.73 189.37C116.83 190.17 117.55 190.73 118.34 190.64C118.94 190.57 119.42 190.13 119.56 189.58C122.33 189.2 125.46 187.97 125.36 184.34L125.34 182.91C125.34 182.91 125.35 182.87 125.36 182.84L125.38 182.83Z" fill="#383F47"/>
<path d="M113.95 152.05H112.53V136.53L113.95 136.26V152.05Z" fill="#383F47"/>
<path d="M178.74 162.74C178.01 142.59 171.58 132.27 167.45 126.56C163.54 121.14 162.63 120.43 162.63 120.43C163.3 120.74 179.12 128.47 180.37 162.68L178.74 162.74Z" fill="#383F47"/>
<path d="M179.66 163.12C178.56 142.17 173.56 133 169.44 127.29C165.53 121.87 162.62 120.4 162.62 120.4C163.29 120.71 179.13 129.08 180.38 163.3L179.66 163.12Z" fill="#1A2026"/>
<path d="M186.61 168.9C186.61 172.73 183.51 175.83 179.68 175.83C175.85 175.83 172.75 172.73 172.75 168.9C172.75 165.07 175.85 161.97 179.68 161.97C183.51 161.97 186.61 165.07 186.61 168.9Z" fill="#BCBCBC"/>
<path d="M179.68 176.03C175.75 176.03 172.55 172.83 172.55 168.9C172.55 164.97 175.75 161.77 179.68 161.77C183.61 161.77 186.81 164.97 186.81 168.9C186.81 172.83 183.61 176.03 179.68 176.03ZM179.68 162.17C175.97 162.17 172.95 165.19 172.95 168.9C172.95 172.61 175.97 175.63 179.68 175.63C183.39 175.63 186.41 172.61 186.41 168.9C186.41 165.19 183.39 162.17 179.68 162.17Z" fill="#444444"/>
<g opacity="0.3">
<path d="M183.12 175.17L181.37 171.49L182.61 168.1L186.43 166.46C186.43 166.46 188.66 171.36 183.12 175.17Z" fill="white"/>
</g>
<path d="M182.79 169.41C182.79 171.22 181.4 172.68 179.68 172.68C177.96 172.68 176.57 171.22 176.57 169.41C176.57 167.6 177.96 166.14 179.68 166.14C181.4 166.14 182.79 167.6 182.79 169.41Z" fill="#635B53"/>
<g opacity="0.4">
<path d="M178.58 161.73L178.96 165.93L176.63 168.68L172.48 168.89C172.48 168.89 172.07 163.38 178.58 161.72V161.73Z" fill="white"/>
</g>
<path d="M182.45 168.9C182.45 170.43 181.21 171.67 179.68 171.67C178.15 171.67 176.91 170.43 176.91 168.9C176.91 167.37 178.15 166.13 179.68 166.13C181.21 166.13 182.45 167.37 182.45 168.9Z" fill="#D3D3D3"/>
<path d="M179.68 171.87C178.04 171.87 176.71 170.54 176.71 168.9C176.71 167.26 178.04 165.93 179.68 165.93C181.32 165.93 182.65 167.26 182.65 168.9C182.65 170.54 181.32 171.87 179.68 171.87ZM179.68 166.33C178.26 166.33 177.11 167.48 177.11 168.9C177.11 170.32 178.26 171.47 179.68 171.47C181.1 171.47 182.25 170.32 182.25 168.9C182.25 167.48 181.1 166.33 179.68 166.33Z" fill="#A8A6A0"/>
<path d="M180.76 169.23C180.76 169.83 180.27 170.32 179.67 170.32C179.07 170.32 178.58 169.83 178.58 169.23C178.58 168.63 179.07 168.14 179.67 168.14C180.27 168.14 180.76 168.63 180.76 169.23Z" fill="#BABABA"/>
<path d="M179.67 169.99C180.272 169.99 180.76 169.502 180.76 168.9C180.76 168.298 180.272 167.81 179.67 167.81C179.068 167.81 178.58 168.298 178.58 168.9C178.58 169.502 179.068 169.99 179.67 169.99Z" fill="white"/>
<path d="M110.32 187.09H110.02C109.772 187.09 109.57 187.291 109.57 187.54V189.44C109.57 189.688 109.772 189.89 110.02 189.89H110.32C110.569 189.89 110.77 189.688 110.77 189.44V187.54C110.77 187.291 110.569 187.09 110.32 187.09Z" fill="#AAA9A2"/>
<path d="M118.192 187.071L117.893 187.099C117.646 187.123 117.464 187.342 117.487 187.59L117.667 189.481C117.69 189.729 117.91 189.91 118.157 189.887L118.456 189.858C118.703 189.835 118.885 189.615 118.861 189.368L118.682 187.476C118.659 187.229 118.439 187.047 118.192 187.071Z" fill="#AAA9A2"/>
<g opacity="0.4">
<path d="M178.97 166.53C177.37 167.06 177.26 168.54 177.26 168.54L178.82 168.65L179.23 168.24L178.97 166.53Z" fill="white"/>
</g>
<g opacity="0.4">
<path d="M181.16 170.93C182.48 169.88 182.07 168.46 182.07 168.46L180.57 168.89L180.33 169.42L181.17 170.93H181.16Z" fill="white"/>
</g>
<path d="M116.97 92.0101C116.97 92.0101 113.98 80.1701 113.45 74.1901C112.92 68.2101 112.29 60.1801 119.03 57.4401C125.77 54.7101 123.7 63.0501 123.7 63.0501C123.7 63.0501 118.37 66.6301 117.3 75.6101C116.72 80.4901 116.97 92.0101 116.97 92.0101Z" fill="#2A445D"/>
<path d="M161.76 91.8298C161.76 91.8298 165.08 80.1698 165.61 74.1898C166.14 68.2098 166.77 60.1798 160.03 57.4398C153.29 54.6998 155.36 63.0498 155.36 63.0498C155.36 63.0498 160.69 66.6298 161.76 75.6098C162.34 80.4898 161.76 91.8298 161.76 91.8298Z" fill="#2A445D"/>
<path d="M156.26 65.9299C156.26 65.9299 148.05 67.2399 142.55 64.6499C140.94 63.8899 133.12 67.2199 129.53 66.5499C122.65 65.2599 119.63 59.6599 119.49 59.0899C119.09 57.4099 117.45 54.9999 122.42 51.2699C129.3 46.1099 137.79 47.3599 139.21 45.8499C140.63 44.3399 142.06 43.4199 144.81 43.6899C152.18 44.4299 152.54 48.7499 156.69 49.3999C162.09 50.2399 163.91 52.4199 164.26 56.9499C164.93 65.5699 156.27 65.9199 156.27 65.9199L156.26 65.9299Z" fill="#2A445D"/>
<path d="M140.63 44.6997C140.63 44.6997 138.32 46.3597 132.52 53.1097C126.72 59.8597 123.7 59.4497 123.05 59.5597C123.05 59.5597 128.06 60.4197 133.35 53.4597C138.65 46.4997 140.63 44.6997 140.63 44.6997Z" fill="#1F384C"/>
<path d="M149.73 65.7C149.73 65.7 159.41 66.84 163.63 61.79C163.63 61.79 162.74 67.08 149.95 65.79L149.73 65.7Z" fill="#1F384C"/>
<path d="M133.81 65.8501C122.4 67.4401 119.12 58.0301 119.18 58.2001C120.98 63.9101 125.52 66.1101 128.84 66.9701C129.84 67.2401 130.83 67.4101 131.81 67.4801C132.35 67.5201 132.68 67.5201 132.68 67.5201C132.68 67.5201 132.69 67.5201 132.7 67.5201C143.61 67.6201 152.44 56.0801 152.44 56.0801C145.04 62.4501 138.47 64.9401 133.81 65.8601V65.8501Z" fill="#1F384C"/>
<mask id="mask0_1701_11015" style="mask-type:luminance" maskUnits="userSpaceOnUse" x="126" y="82" width="10" height="10">
<path d="M134.52 83.45C136.4 85.33 136.4 88.39 134.52 90.28C132.64 92.16 129.58 92.16 127.69 90.28C125.81 88.4 125.81 85.34 127.69 83.45C129.57 81.57 132.63 81.57 134.52 83.45Z" fill="white"/>
</mask>
<g mask="url(#mask0_1701_11015)">
<path d="M132.63 92.1601L136.4 88.3901V92.1601H132.63Z" fill="white"/>
<path d="M127.78 92.1601L125.81 90.1801V85.3301L129.58 81.5601H134.43L136.4 83.5401V88.3901L132.63 92.1601H127.78Z" fill="white"/>
<path d="M129.58 81.5601L125.81 85.3301V81.5601H129.58Z" fill="white"/>
</g>
<mask id="mask1_1701_11015" style="mask-type:luminance" maskUnits="userSpaceOnUse" x="143" y="82" width="11" height="11">
<path d="M151.73 83.78C153.61 85.66 153.61 88.72 151.73 90.61C149.85 92.49 146.79 92.49 144.9 90.61C143.01 88.73 143.02 85.67 144.9 83.78C146.78 81.89 149.84 81.9 151.73 83.78Z" fill="white"/>
</mask>
<g mask="url(#mask1_1701_11015)">
<path d="M149.84 92.4897L153.61 88.7197V92.4897H149.84Z" fill="white"/>
<path d="M144.99 92.4899L143.02 90.5199V85.6699L146.79 81.8999H151.64L153.61 83.8699V88.7199L149.84 92.4899H144.99Z" fill="white"/>
<path d="M146.79 81.8999L143.02 85.6699V81.8999H146.79Z" fill="white"/>
</g>
<path d="M153.28 80.12C151.89 79.16 150.3 78.73 148.6 78.98C147.88 79.09 147.29 78.41 147.45 77.7C147.53 77.35 147.79 77.05 148.13 76.94C150.48 76.21 152.84 76.6 154.65 78.47C154.89 78.72 154.97 79.08 154.89 79.42L154.87 79.49C154.7 80.2 153.87 80.53 153.27 80.12H153.28Z" fill="#2A445D"/>
<path d="M153.21 85.5601C152.54 83.4901 150.61 81.9801 148.33 81.9801C145.76 81.9801 143.64 83.8801 143.25 86.3501C142.35 85.3301 141.05 84.6701 139.59 84.6701C138.26 84.6701 137.07 85.2101 136.18 86.0701C135.74 83.6701 133.64 81.8501 131.12 81.8501C128.83 81.8501 126.91 83.3601 126.24 85.4301C117.67 82.3901 115.56 81.9901 114.99 82.1001C114.82 82.1301 114.68 82.3901 114.65 82.5301L115.09 82.7101C115.09 82.7101 115.17 82.6001 115.18 82.6001C115.92 82.5101 121.25 84.2501 126.08 85.9601C126.01 86.3001 125.97 86.6601 125.97 87.0201C125.97 89.8601 128.28 92.1801 131.13 92.1801C133.04 92.1801 134.69 91.1301 135.58 89.5801C135.78 89.2401 135.82 89.1501 135.92 88.9001C136.13 88.3601 136.25 87.7801 136.27 87.1801C136.35 86.7201 136.4 86.6501 136.52 86.5401C137.31 85.7401 138.39 85.2301 139.6 85.2401C142.35 85.2501 143.15 87.4101 143.2 87.3101C143.22 87.9201 143.34 88.5001 143.55 89.0301C143.64 89.2301 143.89 89.7101 143.89 89.7101C144.78 91.2601 146.43 92.3101 148.34 92.3101C151.18 92.3101 153.5 90.0001 153.5 87.1501C153.5 86.7901 153.46 86.4301 153.39 86.0901C158.29 84.3501 163.61 82.5901 164.22 82.7301C164.2 82.7301 164.77 82.5001 164.77 82.5001C164.6 82.1401 164.37 81.6201 153.23 85.5601H153.21ZM131.11 91.6301C128.57 91.6301 126.5 89.5601 126.5 87.0201C126.5 84.4801 128.57 82.4101 131.11 82.4101C133.65 82.4101 135.72 84.4801 135.72 87.0201C135.72 89.5601 133.65 91.6301 131.11 91.6301ZM148.33 91.7601C145.79 91.7601 143.72 89.6901 143.72 87.1501C143.72 84.6101 145.79 82.5401 148.33 82.5401C150.87 82.5401 152.94 84.6101 152.94 87.1501C152.94 89.6901 150.87 91.7601 148.33 91.7601Z" fill="#302420"/>
<path d="M126.15 79.9901C127.54 79.0301 129.13 78.6001 130.83 78.8501C131.55 78.9601 132.14 78.2801 131.98 77.5701C131.9 77.2201 131.64 76.9201 131.3 76.8101C128.95 76.0801 126.59 76.4701 124.78 78.3401C124.54 78.5901 124.46 78.9501 124.54 79.2901L124.56 79.3601C124.73 80.0701 125.56 80.4001 126.16 79.9901H126.15Z" fill="#2A445D"/>
<path d="M103.57 183.49C103.57 183.49 102.22 156.13 111.46 152.58C113.57 151.77 115.55 152.26 117 153.02C121.89 155.6 123.11 164.96 123.48 169.22C123.97 174.73 124.72 182.74 123.74 184.98C123.74 184.98 124.08 172.26 121.95 162.97C119.82 153.69 115.8 152.67 113.23 152.81C110.66 152.95 107.67 155.83 106.01 161.46C104.35 167.09 103.57 183.49 103.57 183.49Z" fill="#1A2026"/>
<path d="M102.24 185.51C102.24 185.42 102.88 187.93 105.34 188.49C107.8 189.06 109.08 187.73 109.08 187.73C109.08 187.73 108.91 189.3 109.17 189.7C109.17 189.7 102.46 190.42 102.24 185.5V185.51Z" fill="#1A2026"/>
<path d="M125.37 183.64C125.37 183.58 125.47 184.76 124.98 185.74C124.12 187.46 123.35 187.54 122.44 188.02C120.21 189.2 119.43 187.62 119.43 187.62C119.43 187.62 119.73 189.11 119.58 189.55C119.58 189.55 125.87 189.35 125.38 183.64H125.37Z" fill="#1A2026"/>
<path d="M112.53 136.53L113.95 136.26L113.86 136.98L112.53 137.24V136.53Z" fill="#1A2026"/>
</svg>
