<svg width="35" height="28" viewBox="0 0 35 28" fill="none" xmlns="http://www.w3.org/2000/svg">
<path d="M26.7449 21.5959C26.7449 22.2787 26.4737 22.9335 25.9908 23.4164C25.508 23.8992 24.8532 24.1704 24.1704 24.1704H3.57449C2.89169 24.1704 2.23686 23.8992 1.75405 23.4164C1.27124 22.9335 1 22.2787 1 21.5959V3.57449C1 2.89169 1.27124 2.23686 1.75405 1.75405C2.23686 1.27124 2.89169 1 3.57449 1H10.0107L12.5852 4.86173H24.1704C24.8532 4.86173 25.508 5.13297 25.9908 5.61579C26.4737 6.0986 26.7449 6.75343 26.7449 7.43622V21.5959Z" stroke="#02BE58" stroke-width="2" stroke-linecap="round" stroke-linejoin="round"/>
<circle cx="25.8572" cy="19.6431" r="7.10204" fill="white"/>
<path d="M33.9592 19.6431C33.9592 19.0908 33.5115 18.6431 32.9592 18.6431C32.4069 18.6431 31.9592 19.0908 31.9592 19.6431H33.9592ZM26.7449 13.541H27.7449V11.541H26.7449V13.541ZM31.9592 19.6431C31.9592 23.0131 29.2272 25.7451 25.8572 25.7451V27.7451C30.3318 27.7451 33.9592 24.1177 33.9592 19.6431H31.9592ZM25.8572 25.7451C22.4871 25.7451 19.7551 23.0131 19.7551 19.6431H17.7551C17.7551 24.1177 21.3825 27.7451 25.8572 27.7451V25.7451ZM19.7551 19.6431C19.7551 16.273 22.4871 13.541 25.8572 13.541V11.541C21.3825 11.541 17.7551 15.1684 17.7551 19.6431H19.7551ZM25.8572 13.541H26.7449V11.541H25.8572V13.541Z" fill="#02BE58"/>
<path d="M33.4666 13.5557L25.8573 21.1726L23.5745 18.8898" stroke="#02BE58" stroke-width="2" stroke-linecap="round" stroke-linejoin="round"/>
</svg>
