<svg width="41" height="38" viewBox="0 0 41 38" fill="none" xmlns="http://www.w3.org/2000/svg">
<g filter="url(#filter0_b_1453_9365)">
<path d="M20.0925 38C19.7676 38 19.4585 37.8548 19.1415 37.5492L18.4836 36.9149C15.147 33.7133 11.6994 30.4046 8.65601 26.8285C7.57814 25.5677 6.5716 24.2228 5.58884 22.9238C5.22426 22.4424 4.85177 21.9381 4.47927 21.4567C4.36038 21.3038 4.29698 21.2656 4.1464 21.2656H4.13054C3.57576 21.2733 3.0606 21.2809 2.57714 21.2809C2.10161 21.2809 1.63401 21.2733 1.19811 21.2656C0.754278 21.258 0.381779 21.0593 0.167791 20.7155C-0.046198 20.3792 -0.0541235 19.959 0.136089 19.5846C0.334226 19.1872 0.6988 18.9809 1.18226 18.9809C1.46757 18.9809 1.75289 18.9809 2.03821 18.9809H2.96549C2.94172 18.9274 2.91002 18.8739 2.88624 18.8204C1.69741 16.635 0.952416 14.5872 0.603693 12.5775C0.00928051 9.10839 0.651247 6.28876 2.56922 3.95053C4.71703 1.33722 7.53851 0.00764126 10.9703 0.00764126C11.3269 0.00764126 11.6915 0.0229238 12.064 0.0534888C15.3927 0.305651 17.9764 1.99437 19.9657 5.19606L20.1084 5.4253C20.1321 5.38709 20.1559 5.34888 20.1797 5.31832C21.1625 3.73658 22.1531 2.60567 23.3182 1.75749C24.6972 0.748844 26.3616 0.191032 28.4064 0.0305651C28.6917 0.00764126 28.9849 0 29.2782 0C31.7034 0 34.0652 0.802332 35.9356 2.26945C37.8139 3.73658 39.1217 5.82264 39.613 8.1303C39.9697 9.83431 39.8746 11.6835 39.296 13.9682C38.8918 15.5653 38.2181 17.2158 37.2433 19.0038C37.2275 19.0344 37.2116 19.0573 37.1958 19.0879C37.3463 19.0879 37.5049 19.0879 37.6554 19.0879C37.9249 19.0879 38.1944 19.0879 38.4559 19.0879C38.876 19.0879 39.2168 19.0802 39.5338 19.0726C39.5655 19.0726 39.5893 19.0726 39.621 19.0726C40.3026 19.0726 40.7543 19.3477 40.9841 19.9055L41 19.9437V20.4862L40.9841 20.5244C40.7543 21.0899 40.3026 21.365 39.6051 21.365C39.5813 21.365 39.5655 21.365 39.5417 21.365C39.0583 21.3573 38.5589 21.3497 38.0042 21.3497C37.4177 21.3497 36.7995 21.3573 35.9911 21.365C35.9039 21.365 35.7692 21.4337 35.7454 21.472C33.0586 25.453 29.8013 28.8993 26.6786 32.0322C25.2679 33.4458 23.8096 34.8594 22.3988 36.2272C21.955 36.6551 21.5112 37.0907 21.0673 37.5186C20.7345 37.8472 20.4175 38 20.0925 38ZM7.19772 21.2809C10.8276 26.2477 15.258 30.5421 19.5536 34.6913L20.1084 35.2262C20.4412 34.8976 20.7741 34.5767 21.107 34.2481C25.2203 30.2441 29.4763 26.1026 32.9398 21.3573H30.4194C29.8013 21.3573 29.1751 21.3573 28.557 21.3573C27.8357 21.3573 27.4791 21.1128 27.2413 20.4633C27.2334 20.4327 27.2175 20.4098 27.2096 20.3792C27.1621 20.5244 27.1145 20.6773 27.0749 20.8301L27.067 20.853C26.845 21.6171 26.4725 21.8922 25.6483 21.8922C25.2679 21.8922 24.8954 21.8922 24.5149 21.8922H22.9615C22.9457 21.9534 22.9298 22.0068 22.914 22.0603C22.7713 22.5799 22.6287 23.0995 22.486 23.6115C22.1848 24.7195 21.8678 25.858 21.5587 26.9813C21.4002 27.5544 20.9722 27.9059 20.4254 27.9135H20.4016C19.8389 27.9135 19.4109 27.5773 19.2366 26.9966C19.1969 26.859 19.1573 26.7291 19.1177 26.5916L19.078 26.4388L17.8337 22.0527H16.2169C15.8127 22.0527 15.4085 22.0527 14.9964 22.0527C14.2673 22.0527 13.8868 21.77 13.6966 21.0822C13.5302 20.4786 13.3558 19.8749 13.1894 19.2713L12.1829 15.6569L11.7707 17.1699C11.4854 18.2015 11.2001 19.2407 10.9148 20.2723C10.7166 20.9982 10.3362 21.2809 9.55952 21.2809C9.2425 21.2809 8.92548 21.2809 8.60845 21.2809H7.19772ZM17.4058 19.7603C17.8258 19.7603 18.2459 19.7603 18.6659 19.7603C19.3317 19.7603 19.7517 20.0736 19.934 20.6849C20.0608 21.1128 20.1797 21.5407 20.2986 21.961C20.3303 22.0833 20.3699 22.2055 20.4016 22.3278C20.5839 21.7623 20.7424 21.2121 20.893 20.6696C21.1228 19.8367 21.4478 19.5998 22.3513 19.5998C22.7159 19.5998 24.9826 19.5998 24.9826 19.5998L25.2599 18.6447C25.5294 17.7048 25.791 16.7802 26.0604 15.8556C26.2903 15.0533 26.8213 14.8852 27.2334 14.8852H27.2492C27.6534 14.8928 28.1924 15.0609 28.4222 15.8709C28.6441 16.6503 28.8661 17.4374 29.0959 18.2321L29.3337 19.0802H31.1327C32.1076 19.0802 33.2647 19.0802 34.3981 19.0726C34.4218 19.065 34.5011 19.0191 34.5169 18.9809C35.8326 16.8031 36.6489 14.8852 37.0848 12.9443C37.378 11.6224 37.6554 9.87251 37.1561 8.11502C36.1654 4.63061 32.9556 2.29238 29.1751 2.29238H29.1117C26.4725 2.30766 24.507 3.2781 23.0963 5.24191C22.5653 5.98311 22.0977 6.78544 21.638 7.56485C21.5033 7.79409 21.3685 8.03097 21.2259 8.26021C21.0198 8.59642 20.7107 8.98612 20.1084 9.00141H20.0925C19.617 9.00141 19.2524 8.76453 18.9829 8.26785C18.5708 7.51136 18.1904 6.83893 17.7783 6.18178C16.2724 3.80535 14.4099 2.57511 11.9055 2.32294C11.6043 2.29238 11.3031 2.2771 11.002 2.2771C8.64808 2.2771 6.38931 3.24754 4.82006 4.9439C3.24289 6.6479 2.52167 8.84858 2.79113 11.1333C3.0923 13.6779 3.98788 16.1383 5.62054 18.8892C5.64432 18.9274 5.69187 18.9656 5.71564 18.9809C6.38139 18.9885 7.03128 18.9885 7.58606 18.9885H8.79867C8.82244 18.9121 8.84622 18.8434 8.86207 18.7746C9.09984 17.9035 9.3376 17.0324 9.57537 16.1536C10.043 14.4496 10.5106 12.7456 10.9782 11.0416C11.1605 10.3921 11.5409 10.0712 12.1512 10.0635H12.167C12.7852 10.0635 13.1735 10.3845 13.3558 11.0493C13.7363 12.4171 14.1167 13.7848 14.4892 15.1526L15.7573 19.7527C16.0267 19.7603 17.1046 19.7603 17.4058 19.7603Z" fill="#007CFF"/>
</g>
<defs>
<filter id="filter0_b_1453_9365" x="-100" y="-100" width="241" height="238" filterUnits="userSpaceOnUse" color-interpolation-filters="sRGB">
<feFlood flood-opacity="0" result="BackgroundImageFix"/>
<feGaussianBlur in="BackgroundImageFix" stdDeviation="50"/>
<feComposite in2="SourceAlpha" operator="in" result="effect1_backgroundBlur_1453_9365"/>
<feBlend mode="normal" in="SourceGraphic" in2="effect1_backgroundBlur_1453_9365" result="shape"/>
</filter>
</defs>
</svg>
