<svg width="34" height="44" viewBox="0 0 34 44" fill="none" xmlns="http://www.w3.org/2000/svg">
<path d="M15.8444 43.9915L15.8184 43.9831C15.5142 43.9322 15.21 43.8898 14.9058 43.8475C14.2453 43.7542 13.5587 43.6525 12.8982 43.4746C6.36252 41.7119 2.18213 37.5763 0.469996 31.1864C-0.407798 27.9068 -0.0601572 24.4237 1.54768 20.5254C2.94694 17.1186 4.98064 13.7034 7.9269 9.77119C10.3256 6.57627 13.0285 3.45763 15.9574 0.516949C16.3051 0.169492 16.6527 0 17.009 0C17.3567 0 17.6956 0.169492 18.0172 0.5C23.3709 5.9322 27.2471 10.8729 30.2455 16.0508C32.0445 19.161 33.1396 21.8475 33.6784 24.5085C33.7653 24.9322 33.8349 25.3559 33.8957 25.7712C33.9218 25.9661 33.9565 26.1525 33.9913 26.3475L34 26.3729V28.5678C33.9739 28.7458 33.9479 28.9153 33.9218 29.0932C33.8696 29.4661 33.8088 29.8559 33.748 30.2373C33.2091 33.4237 31.6882 36.3898 29.359 38.7966C27.0298 41.2034 24.0835 42.8559 20.8592 43.5593C20.2508 43.6949 19.6337 43.7797 19.034 43.8644C18.7646 43.9068 18.4778 43.9492 18.1997 43.9915L18.1736 44H15.8444V43.9915ZM17.0438 3.00847C17.0003 3.05085 16.9656 3.09322 16.9308 3.12712C14.1149 6.0678 11.6814 8.94915 9.49998 11.9237C6.69278 15.7458 4.90242 18.8559 3.69437 22.0169C2.63406 24.7712 2.33857 27.339 2.77312 29.8814C3.2772 32.822 4.85028 35.6186 7.19686 37.7458C9.55212 39.8814 12.5245 41.1949 15.575 41.4407C16.0704 41.4831 16.5745 41.5 17.0525 41.5C21.4328 41.5 25.1265 39.8136 28.0293 36.4915C30.8625 33.2373 31.9402 29.4661 31.2363 25.2712C30.7756 22.5593 29.611 20.1525 28.5333 18.161C26.7864 14.9492 24.5528 11.7288 21.7022 8.33898C20.6158 7.04237 19.5207 5.80508 18.3561 4.49153C17.9216 4 17.487 3.50847 17.0438 3.00847Z" fill="#007CFF"/>
<path d="M16.7396 36.7881C16.5571 36.7881 16.3833 36.7881 16.2008 36.7881C14.3148 36.7627 12.9764 35.4661 12.959 33.6271C12.9503 33.0424 12.9503 32.4746 12.959 31.8729C12.959 31.7034 12.959 31.5424 12.959 31.3729C12.9242 31.3729 12.8895 31.3729 12.8547 31.3729H12.6635C12.4636 31.3729 12.2637 31.3729 12.0551 31.3729C11.8552 31.3729 11.6467 31.3729 11.4468 31.3729C11.1165 31.3729 10.8471 31.3729 10.595 31.3644C8.85684 31.3305 7.56188 30.1525 7.43151 28.5085C7.37068 27.7627 7.37937 27.0169 7.43151 26.3051C7.56188 24.6695 8.85684 23.5085 10.569 23.4661C10.821 23.4576 11.0991 23.4576 11.4381 23.4576C11.6467 23.4576 11.8552 23.4576 12.0551 23.4576C12.2637 23.4576 12.4636 23.4576 12.6722 23.4576H12.8286C12.8721 23.4576 12.9156 23.4576 12.959 23.4576C12.959 23.3305 12.959 23.2034 12.959 23.0763C12.959 22.5085 12.9503 21.9322 12.9677 21.3559C12.9764 21.0508 12.9938 20.6525 13.0981 20.2712C13.4457 19.0254 14.4886 18.1864 15.8184 18.0847C16.2355 18.0508 16.644 18.0339 17.0438 18.0339C17.4436 18.0339 17.8347 18.0508 18.2171 18.0847C19.8945 18.2373 21.0417 19.483 21.0677 21.1864C21.0764 21.7712 21.0764 22.339 21.0764 22.9492C21.0764 23.1186 21.0764 23.2881 21.0764 23.4576C21.1199 23.4576 21.1633 23.4576 21.2068 23.4576H21.3719C21.5805 23.4576 21.7804 23.4576 21.989 23.4576C22.1976 23.4576 22.4062 23.4576 22.6061 23.4576C22.9363 23.4576 23.2144 23.4576 23.4665 23.4661C25.2742 23.5085 26.5692 24.7627 26.6213 26.5254C26.6387 27.0763 26.6387 27.6441 26.6213 28.2797C26.5779 30.0593 25.2655 31.3305 23.4404 31.3644C23.1449 31.3729 22.8233 31.3729 22.4322 31.3729C22.1628 31.3729 21.8847 31.3729 21.6066 31.3729C21.4328 31.3729 21.2503 31.3729 21.0764 31.3729V31.822C21.0764 32.3644 21.0764 32.8898 21.0764 33.4068C21.0764 35.5169 19.7815 36.7797 17.6087 36.7797C17.4783 36.7797 17.348 36.7797 17.2089 36.7797C17.0438 36.7881 16.8874 36.7881 16.7396 36.7881ZM13.9324 28.8729C15.0362 28.8729 15.5055 29.3305 15.5055 30.4068C15.5055 30.8305 15.5055 31.2542 15.5055 31.6864C15.5055 32.3051 15.5055 32.9492 15.5055 33.5763C15.5055 34.1271 15.6793 34.2797 16.2529 34.2881C16.5136 34.2881 16.7657 34.2881 17.0264 34.2881C17.2698 34.2881 17.5218 34.2881 17.7652 34.2881C18.3301 34.2797 18.4952 34.1186 18.4952 33.5593C18.4952 32.9492 18.4952 32.3475 18.4952 31.7373C18.4952 31.2881 18.4952 30.839 18.4952 30.3898C18.4952 29.3475 18.9732 28.8729 20.0422 28.8729C20.3116 28.8729 20.5724 28.8729 20.8418 28.8729H22.2845C22.6061 28.8729 22.9189 28.8729 23.2405 28.8729C23.8923 28.8729 24.0314 28.7288 24.0314 28.0847V27.9915C24.0314 27.5508 24.0401 27.1017 24.0314 26.6525C24.0227 26.1271 23.8576 25.9661 23.31 25.9576C22.9102 25.9576 22.5105 25.9576 22.1107 25.9576H20.0596C18.9558 25.9576 18.4865 25.5 18.4865 24.4237C18.4865 24.0339 18.4865 23.6441 18.4865 23.2627C18.4865 22.5763 18.4865 21.8729 18.4778 21.178C18.4778 20.7458 18.2866 20.5593 17.8608 20.5508C17.5653 20.5424 17.2785 20.5424 16.9916 20.5424C16.6962 20.5424 16.392 20.5424 16.1052 20.5508C15.6967 20.5593 15.5142 20.7458 15.5055 21.1525C15.4968 21.5339 15.4968 21.9237 15.4968 22.3051C15.4968 22.5 15.4968 22.6864 15.4968 22.8814V23.3644C15.4968 23.7288 15.4968 24.0847 15.4968 24.4492C15.4881 25.4915 15.0188 25.9661 13.9498 25.9661C13.7151 25.9661 13.4892 25.9661 13.2545 25.9661H11.777C11.4207 25.9661 11.0557 25.9661 10.6993 25.9661C10.1084 25.9661 9.95191 26.1186 9.95191 26.7119C9.95191 27.178 9.94322 27.6864 9.95191 28.1864C9.9606 28.7119 10.1257 28.8729 10.6733 28.8814C11.0731 28.8814 11.4815 28.8814 11.8813 28.8814H13.4631L13.9324 28.8729Z" fill="#007CFF"/>
</svg>
