<svg width="127" height="152" viewBox="0 0 127 152" fill="none" xmlns="http://www.w3.org/2000/svg">
<path d="M41.0005 151.891L0 148.772V33.3969L41.0005 30.3602V151.891Z" fill="url(#paint0_linear_1619_24976)"/>
<path d="M3.16913 143.729V38.4463L41.0005 35.9033V146.348L3.16913 143.729Z" fill="white"/>
<mask id="mask0_1619_24976" style="mask-type:luminance" maskUnits="userSpaceOnUse" x="3" y="35" width="39" height="112">
<path d="M3.16913 143.729V38.4463L41.0005 35.9033V146.348L3.16913 143.729Z" fill="white"/>
</mask>
<g mask="url(#mask0_1619_24976)">
<path d="M153.245 63.2459L112.561 64.4406C112.426 42.1021 112.314 10.1831 112.534 7.22122C112.523 7.37192 112.447 8.16933 112.056 9.07007L106.666 4.40771C106.088 5.75082 106.071 6.8736 106.024 9.8749C105.997 11.5782 105.979 14.0224 105.969 17.1401C105.953 22.3585 105.959 29.5603 105.988 38.5471C106.038 53.835 106.138 69.212 106.139 69.3656L106.17 74.0114L120.127 73.7511V107.216L93.8053 106.715L78.0789 75.2454L56.4768 75.6302L85.4909 23.1136L80.9016 17.5072L49.0049 75.7632L35.2793 76.0075C35.2987 70.7241 35.3301 61.3314 35.3489 51.9782C35.3655 43.7163 35.3695 37.1018 35.3597 32.319C35.3409 22.7809 35.3055 22.6724 35.1109 22.0673L32.5468 24.3295C32.4446 24.0104 32.4218 23.7398 32.4184 23.689C32.5525 25.6737 32.4926 54.641 32.4127 76.0588L18.0797 76.314C15.4768 60.9159 9.39031 24.9368 9.18596 23.943L4.4123 26.9723L4.40089 26.9135C4.6606 28.3046 10.0405 60.2943 13.6331 81.6996L14.1503 84.7808L44.1844 84.5684L25.5253 118.647L-11.0942 117.341V125.466L27.9427 127.278L51.5678 84.5165L75.0885 84.3504L86.0942 106.571L57.0167 106.018V169.136L60.0626 169.427V110.802L88.5396 111.506L117.258 169.489L122.545 164.227L96.2951 111.698L123.657 112.375V73.6866L153.245 73.1352V63.2471V63.2459Z" fill="#A3C7FF"/>
</g>
<path d="M68.9649 145.261H116.783L116.783 37.1504H68.9649L68.9649 145.261Z" fill="url(#paint1_linear_1619_24976)"/>
<path d="M112.906 140.322V42.0137H68.9655V140.322H112.906Z" fill="white"/>
<mask id="mask1_1619_24976" style="mask-type:luminance" maskUnits="userSpaceOnUse" x="68" y="42" width="45" height="99">
<path d="M112.906 140.322V42.0137H68.9655V140.322H112.906Z" fill="white"/>
</mask>
<g mask="url(#mask1_1619_24976)">
<path d="M130.292 69.2862H93.9451C93.8184 51.0113 93.714 24.8952 93.92 22.4892C93.9097 22.6114 93.839 23.2581 93.4731 23.9647L88.3986 19.7168C87.8506 20.7762 87.8341 21.7004 87.7896 24.1697C87.7645 25.571 87.7468 27.5837 87.7371 30.1523C87.7211 34.451 87.7273 40.3857 87.7547 47.7925C87.8021 60.3914 87.8974 73.0621 87.898 73.1889L87.9271 77.0167H100.956V104.152H76.0332L60.4034 77.6212H37.9615L67.8416 33.7467L63.2511 28.6842L29.9234 77.6212H14.7679C14.7896 72.8852 14.825 64.4664 14.8461 56.0829C14.865 48.6778 14.869 42.7494 14.8581 38.4615C14.8364 29.9108 14.797 29.8104 14.5784 29.2533L11.6884 31.0918C11.5725 30.7973 11.5474 30.5524 11.5434 30.5062C11.6953 32.3014 11.6273 58.3553 11.5366 77.6206H-4.97058C-8.03354 63.4258 -15.2742 29.8874 -15.5197 28.9502L-21.282 31.3944L-21.2962 31.3384C-20.9806 32.6547 -14.4962 62.6609 -10.2152 82.5084L-9.60211 85.3505H24.6583L3.67829 116.156H-40.4993V123.886H6.45355L32.6975 85.3505H57.3661L68.4421 104.151H38.5375V159.244H41.7682V108.263H70.864L98.3118 154.853L103.172 150.216L78.4557 108.263H104.187V77.0161H130.292V69.2862Z" fill="#A3C7FF"/>
</g>
<path d="M68.9655 145.261L41.0005 151.891V30.3602L68.9655 37.15V145.261Z" fill="url(#paint2_linear_1619_24976)"/>
<path d="M41.0005 146.348V35.9033L68.9655 42.0812V140.33L41.0005 146.348Z" fill="#A3C7FF"/>
<mask id="mask2_1619_24976" style="mask-type:luminance" maskUnits="userSpaceOnUse" x="41" y="35" width="28" height="112">
<path d="M41.0005 146.348V35.9033L68.9655 42.0812V140.33L41.0005 146.348Z" fill="white"/>
</mask>
<g mask="url(#mask2_1619_24976)">
<path d="M96.9122 72.1295L81.2521 70.5644C81.1933 53.2855 81.1448 28.5878 81.2407 26.3422C81.2355 26.4564 81.203 27.0575 81.0329 27.6739L78.6418 22.8911C78.3803 23.8221 78.3723 24.7046 78.3512 27.0632C78.3392 28.4017 78.3307 30.327 78.3261 32.7861C78.3187 36.9016 78.3216 42.5874 78.3347 49.6848C78.3575 61.7557 78.4026 73.895 78.4032 74.016L78.4169 77.6823L84.464 78.079V103.332L72.5838 103.982L64.4218 77.3798L51.5929 76.5721L68.3804 33.6668L65.9539 27.9148L46.6423 76.2605L36.7371 75.6366C36.752 70.2276 36.7759 60.6141 36.7902 51.0405C36.8028 42.5857 36.8056 35.8153 36.7982 30.9167C36.7834 21.1467 36.7571 21.0246 36.6081 20.3476L34.6268 21.9156C34.5469 21.5543 34.5292 21.2678 34.5264 21.2135C34.6314 23.3095 34.5846 53.3089 34.5218 75.4967L22.5828 74.745C20.2459 57.3439 14.5578 15.0151 14.3609 13.7976L9.65574 15.5717L9.64375 15.498C9.90576 17.2287 15.1794 55.7599 18.5558 80.4702L19.0324 83.9595L43.2877 84.6547L28.9707 120.497L-7.24814 124.407V134.746L30.9565 129.311L48.3719 84.8003L62.7636 85.213L68.6915 104.195L51.9377 105.112V164.333L53.867 163.755V109.391L69.9478 108.217L83.2625 150.852L85.4572 145.944L73.7956 107.936L85.9099 107.052V78.1732L96.911 78.8953V72.1284L96.9122 72.1295Z" fill="#0D6CFF"/>
</g>
<path d="M127 35.3387C127 50.4394 105.845 77.9951 96.2706 89.692C93.8881 92.6026 89.4347 92.6026 87.0521 89.692C77.478 77.9951 56.3227 50.4394 56.3227 35.3387C56.3227 15.8216 72.1443 0 91.6614 0C111.178 0 127 15.8216 127 35.3387Z" fill="url(#paint3_linear_1619_24976)"/>
<path d="M91.6614 55.0475C102.546 55.0475 111.37 46.2236 111.37 35.3387C111.37 24.4538 102.546 15.6299 91.6614 15.6299C80.7765 15.6299 71.9525 24.4538 71.9525 35.3387C71.9525 46.2236 80.7765 55.0475 91.6614 55.0475Z" fill="white"/>
<g style="mix-blend-mode:multiply" opacity="0.3">
<path d="M91.505 75.1828C93.7471 60.4178 103.497 55.6921 101.823 41.7501C99.8935 25.6716 85.657 21.3894 85.3134 7.07927C85.258 4.77549 85.5714 2.55391 86.1628 0.426514C69.2572 3.06764 56.3221 17.6923 56.3221 35.3388C56.3221 50.4395 77.4774 77.9952 87.0515 89.6922C88.454 91.4057 90.5734 92.109 92.5667 91.8053C90.8531 85.3381 90.8012 79.8161 91.505 75.1823V75.1828Z" fill="url(#paint4_linear_1619_24976)"/>
</g>
<path d="M91.6614 114.108C95.6505 114.108 98.8844 110.874 98.8844 106.885C98.8844 102.896 95.6505 99.6617 91.6614 99.6617C87.6722 99.6617 84.4384 102.896 84.4384 106.885C84.4384 110.874 87.6722 114.108 91.6614 114.108Z" fill="url(#paint5_linear_1619_24976)"/>
<defs>
<linearGradient id="paint0_linear_1619_24976" x1="0" y1="91.1255" x2="41.0005" y2="91.1255" gradientUnits="userSpaceOnUse">
<stop stop-color="#297DFF"/>
<stop offset="1" stop-color="#0065FF"/>
</linearGradient>
<linearGradient id="paint1_linear_1619_24976" x1="82.0079" y1="63.2163" x2="129.517" y2="185.588" gradientUnits="userSpaceOnUse">
<stop stop-color="#297DFF"/>
<stop offset="1" stop-color="#0065FF"/>
</linearGradient>
<linearGradient id="paint2_linear_1619_24976" x1="29.541" y1="91.0564" x2="81.4559" y2="91.3709" gradientUnits="userSpaceOnUse">
<stop stop-color="#297DFF"/>
<stop offset="1" stop-color="#0065FF"/>
</linearGradient>
<linearGradient id="paint3_linear_1619_24976" x1="87.1023" y1="22.5086" x2="122.691" y2="114.177" gradientUnits="userSpaceOnUse">
<stop stop-color="#4790FF"/>
<stop offset="0.03" stop-color="#5196FF"/>
<stop offset="0.09" stop-color="#5E9EFF"/>
<stop offset="0.17" stop-color="#66A2FF"/>
<stop offset="0.32" stop-color="#69A4FF"/>
<stop offset="0.43" stop-color="#5E9DFF"/>
<stop offset="0.62" stop-color="#418CFF"/>
<stop offset="0.87" stop-color="#1471FF"/>
<stop offset="1" stop-color="#1471FF"/>
</linearGradient>
<linearGradient id="paint4_linear_1619_24976" x1="74.359" y1="27.4565" x2="109.948" y2="119.124" gradientUnits="userSpaceOnUse">
<stop stop-color="#4790FF"/>
<stop offset="0.03" stop-color="#5196FF"/>
<stop offset="0.09" stop-color="#5E9EFF"/>
<stop offset="0.17" stop-color="#66A2FF"/>
<stop offset="0.32" stop-color="#69A4FF"/>
<stop offset="0.43" stop-color="#5E9DFF"/>
<stop offset="0.62" stop-color="#418CFF"/>
<stop offset="0.87" stop-color="#1471FF"/>
<stop offset="1" stop-color="#1471FF"/>
</linearGradient>
<linearGradient id="paint5_linear_1619_24976" x1="100.924" y1="92.8258" x2="77.8102" y2="127.909" gradientUnits="userSpaceOnUse">
<stop stop-color="#4790FF"/>
<stop offset="0.03" stop-color="#5196FF"/>
<stop offset="0.09" stop-color="#5E9EFF"/>
<stop offset="0.17" stop-color="#66A2FF"/>
<stop offset="0.32" stop-color="#69A4FF"/>
<stop offset="0.43" stop-color="#5E9DFF"/>
<stop offset="0.62" stop-color="#418CFF"/>
<stop offset="0.87" stop-color="#1471FF"/>
<stop offset="1" stop-color="#1471FF"/>
</linearGradient>
</defs>
</svg>
