<svg width="81" height="88" viewBox="0 0 81 88" fill="none" xmlns="http://www.w3.org/2000/svg">
<path d="M19.8669 40.1367V23.4878C19.8669 17.9684 22.0889 12.675 26.0442 8.77218C29.9994 4.86935 35.3639 2.67676 40.9575 2.67676C46.551 2.67676 51.9155 4.86935 55.8708 8.77218C59.826 12.675 62.048 17.9684 62.048 23.4878V40.1367M11.4306 40.1367H70.4843C75.1435 40.1367 78.9205 43.8637 78.9205 48.4611V77.5966C78.9205 82.1941 75.1435 85.9211 70.4843 85.9211H11.4306C6.77142 85.9211 2.99438 82.1941 2.99438 77.5966V48.4611C2.99438 43.8637 6.77142 40.1367 11.4306 40.1367Z" stroke="#007CFF" stroke-width="4" stroke-linecap="round" stroke-linejoin="round"/>
</svg>
