<svg width="88" height="88" viewBox="0 0 88 88" fill="none" xmlns="http://www.w3.org/2000/svg">
<path d="M11.3704 55.55C17.6413 55.55 22.7408 50.4625 22.7408 44.2062C22.7408 37.95 17.6413 32.8625 11.3704 32.8625C5.09945 32.8625 -3.25388e-06 37.95 -3.80082e-06 44.2062C-4.34776e-06 50.4625 5.09945 55.55 11.3704 55.55Z" fill="white"/>
<path d="M43.6899 55.55C49.9608 55.55 55.0603 50.4625 55.0603 44.2063C55.0603 37.95 49.9608 32.8625 43.6899 32.8625C37.419 32.8625 32.3195 37.95 32.3195 44.2062C32.3195 50.4625 37.4189 55.55 43.6899 55.55Z" fill="white"/>
<path d="M43.8966 65.2437C37.6257 65.2437 32.5262 70.3312 32.5262 76.5875C32.5262 82.8437 37.6257 88 43.8966 88C50.1676 88 55.267 82.9125 55.267 76.6562C55.267 70.4 50.2365 65.2438 43.8966 65.2437Z" fill="white"/>
<path d="M43.8966 22.6875C50.1676 22.6875 55.267 17.6 55.267 11.3438C55.267 5.08751 50.1676 4.32198e-06 43.8966 3.77376e-06C37.6257 3.22553e-06 32.5262 5.0875 32.5262 11.3438C32.5262 17.6 37.6257 22.6875 43.8966 22.6875Z" fill="white"/>
<path d="M76.6296 55.55C82.9006 55.55 88 50.4625 88 44.2063C88 37.95 82.9006 32.8625 76.6296 32.8625C70.3587 32.8625 65.2592 37.95 65.2592 44.2063C65.1903 50.4625 70.2897 55.55 76.6296 55.55Z" fill="white"/>
</svg>
