<svg width="229" height="229" viewBox="0 0 229 229" fill="none" xmlns="http://www.w3.org/2000/svg">
<ellipse cx="114.913" cy="113.939" rx="99.1843" ry="60.3522" transform="rotate(-20.2554 114.913 113.939)" fill="#EFF7FF"/>
<path d="M61.6842 186.528L165.358 186.425C168.743 186.422 171.484 183.674 171.479 180.288L171.304 47.9786C171.299 44.5926 168.551 41.8503 165.167 41.8537L61.4926 41.9561C58.1076 41.9595 55.3672 44.7071 55.3716 48.0932L55.547 180.403C55.5515 183.789 58.2992 186.531 61.6842 186.528Z" fill="#D0E6FC"/>
<path d="M99.0153 35.6859C100.057 35.6864 101.027 35.0329 101.308 34.0195C102.814 28.8487 107.561 25.0597 113.238 25.0413C118.915 25.023 123.667 28.8244 125.189 33.979C125.498 34.9783 126.464 35.6365 127.506 35.6371L146.666 35.6226C148.003 35.6162 149.102 36.7237 149.109 38.0607L149.13 55.3512C149.137 56.6881 148.03 57.7872 146.694 57.7937L79.8825 57.8714C78.5459 57.8778 77.4468 56.7703 77.4399 55.4333L77.4186 38.1428C77.4117 36.8059 78.5185 35.7068 79.855 35.7003L99.0153 35.6859Z" fill="#D0E6FC"/>
<path d="M163.199 49.1182L63.4652 49.2168L63.6376 179.282L163.371 179.184L163.199 49.1182Z" fill="white"/>
<path d="M84.7778 77.2593L142.518 77.2593" stroke="#D0E6FC" stroke-width="5" stroke-linecap="round"/>
<path d="M84.7778 90.9727L142.518 90.9727" stroke="#D0E6FC" stroke-width="5" stroke-linecap="round"/>
<path d="M84.7778 104.686L142.518 104.686" stroke="#D0E6FC" stroke-width="5" stroke-linecap="round"/>
<path d="M84.7778 118.399L142.518 118.399" stroke="#D0E6FC" stroke-width="5" stroke-linecap="round"/>
</svg>
