<svg width="70" height="73" viewBox="0 0 70 73" fill="none" xmlns="http://www.w3.org/2000/svg">
<path d="M13.2217 73C12.6233 72.8816 12.0189 72.7898 11.4293 72.6388C6.77901 71.4442 3.65422 67.3556 3.65127 62.4306C3.6439 45.7387 3.64832 29.0468 3.64832 12.3548C3.64832 12.0366 3.64832 11.7183 3.64832 11.3616C3.4685 11.3068 3.31373 11.255 3.15602 11.2121C1.38727 10.7265 0.175679 9.36907 0.0592362 7.52017C-0.0262533 6.17457 -0.0306752 4.80529 0.122616 3.46858C0.348132 1.49089 2.03287 0.0268661 4.01092 0.0194646C10.6526 -0.00422032 17.2942 -0.00866124 23.9359 0.0194646C26.0996 0.0283464 27.8168 1.78103 27.9052 3.98224C27.9495 5.08803 27.9421 6.19826 27.9082 7.30553C27.8507 9.17071 26.6583 10.6481 24.8527 11.2091C24.636 11.2772 24.3162 11.5318 24.3147 11.702C24.2808 14.5783 24.2911 17.4545 24.2911 20.3219C34.0015 15.8202 42.5446 17.0741 49.4265 25.5755C53.6022 30.7343 55.1867 39.7568 49.9276 47.8452C50.9181 48.834 51.9116 49.848 52.9375 50.828C53.079 50.9627 53.387 50.9819 53.6081 50.9597C54.7917 50.8369 55.7616 51.2306 56.5929 52.07C60.6595 56.1674 64.7527 60.2368 68.7869 64.3669C69.3382 64.9323 69.602 65.7805 70 66.497V67.2357C68.9712 69.9047 66.9489 71.6278 64.5581 72.9985H63.2345C62.6656 72.6758 61.992 72.4597 61.5439 72.0156C57.324 67.8308 53.1364 63.6104 48.9519 59.3901C48.1825 58.6144 47.87 57.6566 48.0174 56.5538C48.0439 56.3554 48.041 56.0712 47.9245 55.9498C46.9267 54.9077 45.9008 53.8952 44.9 52.8901C38.1389 57.0793 31.3086 57.2836 24.2896 53.5266C24.2896 53.8863 24.2896 54.1498 24.2896 54.4148C24.2867 57.2451 24.3309 60.0769 24.2705 62.9073C24.1717 67.4785 21.0867 71.3776 16.687 72.5796C16.0782 72.7454 15.4562 72.8594 14.8416 72.9985H13.2232L13.2217 73ZM5.74282 43.8794C5.7266 44.0719 5.70892 44.1903 5.70892 44.3087C5.70892 50.4846 5.67059 56.6619 5.72808 62.8377C5.76935 67.2816 9.48962 70.8743 13.9365 70.9024C18.3393 70.9305 22.0831 67.3941 22.1937 62.9754C22.2821 59.4833 22.229 55.9868 22.2143 52.4933C22.2143 52.2402 22.0698 51.9116 21.8812 51.7487C19.4889 49.7015 17.6716 47.2397 16.4393 44.3339C16.3538 44.1311 16.0355 43.9002 15.8232 43.8987C12.4921 43.872 9.1624 43.8794 5.74429 43.8794H5.74282ZM15.5535 41.7818C15.5284 41.6072 15.5152 41.4636 15.4872 41.3244C13.9955 33.7763 16.0959 27.4392 21.8016 22.2966C22.033 22.0879 22.2069 21.6823 22.2099 21.3669C22.2408 18.3397 22.2276 15.3125 22.2276 12.2838C22.2276 11.9951 22.2276 11.708 22.2276 11.3971H5.75903V18.3323C6.6154 18.3323 7.42165 18.3264 8.22644 18.3338C9.01795 18.3427 9.49551 18.7261 9.5132 19.3448C9.53089 19.9873 9.03416 20.3929 8.20285 20.3988C7.38038 20.4047 6.55792 20.3988 5.74576 20.3988V25.5843C6.29113 25.5843 6.79817 25.5843 7.30669 25.5843C8.87498 25.5843 10.4433 25.5725 12.0116 25.5917C12.7279 25.6006 13.1848 26.058 13.1627 26.6635C13.1421 27.2423 12.6999 27.6301 12.013 27.6494C11.5237 27.6627 11.0329 27.6523 10.5435 27.6523C8.95752 27.6523 7.37154 27.6523 5.75313 27.6523V32.8423C6.55349 32.8423 7.30816 32.8334 8.06283 32.8467C8.32814 32.8512 8.68631 32.8112 8.8396 32.9607C9.12555 33.239 9.45277 33.6328 9.47193 33.9925C9.49846 34.5239 9.0887 34.8866 8.51238 34.8969C7.59263 34.9132 6.67141 34.9014 5.77082 34.9014V41.7774H15.555L15.5535 41.7818ZM34.1136 54.1098C43.4953 54.1246 51.1481 46.4611 51.1643 37.0375C51.179 27.5739 43.5719 19.8911 34.1371 19.8422C24.8026 19.7934 17.0643 27.5191 17.0495 36.8998C17.0348 46.4196 24.6449 54.095 34.1136 54.1098ZM13.9469 2.07561C10.7366 2.07561 7.52778 2.06969 4.3175 2.07857C2.9364 2.08301 2.12425 2.88089 2.08298 4.26794C2.05792 5.10431 2.07414 5.94217 2.07856 6.77854C2.0874 8.48829 2.84944 9.26101 4.55038 9.26397C7.09886 9.26989 9.64733 9.26545 12.1943 9.26545C15.919 9.26545 19.6422 9.26841 23.3669 9.26397C25.1091 9.26101 25.8564 8.49569 25.8594 6.72969C25.8609 5.99102 25.8623 5.25234 25.8594 4.51515C25.852 2.85425 25.0811 2.07857 23.4288 2.07561C20.2687 2.07265 17.107 2.07561 13.9469 2.07561ZM68.0146 66.8878C67.7787 66.5059 67.6225 66.1062 67.3454 65.8279C63.2714 61.7112 59.1841 57.6078 55.0924 53.5088C54.4099 52.8249 53.7172 52.8234 53.0362 53.4866C52.1931 54.3097 51.3618 55.1446 50.5423 55.9898C49.8657 56.687 49.8481 57.3754 50.5246 58.0578C54.6207 62.1878 58.7242 66.309 62.8336 70.4243C63.5308 71.123 64.1882 71.1245 64.8898 70.445C65.7535 69.6086 66.604 68.7574 67.4279 67.8811C67.6667 67.628 67.795 67.2682 68.0131 66.8893L68.0146 66.8878ZM49.2246 54.1409C49.8967 53.5133 50.6012 52.8545 51.1746 52.3186C50.277 51.4142 49.3911 50.5216 48.6261 49.7503C48.0262 50.3454 47.3526 51.0145 46.7424 51.6214C47.5502 52.4415 48.4213 53.3253 49.226 54.1409H49.2246Z" fill="#007CFF"/>
<path d="M34.1667 51.8672C25.8742 51.842 19.2738 45.1969 19.2871 36.8865C19.3003 28.7182 26.0245 22.0746 34.23 22.1234C42.328 22.1708 48.9917 28.9077 48.9298 36.9857C48.8679 45.2221 42.2513 51.8909 34.1667 51.8672ZM34.1048 24.1958C26.9561 24.2639 21.3138 29.9616 21.3447 37.0849C21.3742 44.1533 27.1801 49.8555 34.2905 49.8022C41.1724 49.7504 46.8987 43.9268 46.8707 37.0094C46.8412 29.9069 41.0854 24.1307 34.1048 24.1958Z" fill="#007CFF"/>
<path d="M29.0948 39.1084C29.083 37.6252 29.4515 36.2337 30.2002 34.9621C31.1465 33.356 32.1267 31.7691 33.1098 30.1837C33.6935 29.2437 34.5307 29.2526 35.1188 30.2044C36.074 31.7484 37.0306 33.2923 37.9518 34.857C38.985 36.6112 39.3977 38.5104 39.0012 40.5236C38.4957 43.0919 36.2759 44.6907 33.6184 44.476C31.092 44.2717 29.2186 42.2926 29.0962 39.6991C29.0874 39.5022 29.0962 39.3053 29.0962 39.1099L29.0948 39.1084ZM34.1269 32.4722C33.4135 33.6417 32.7988 34.6438 32.1886 35.649C32.0353 35.9006 31.885 36.1552 31.7582 36.4202C31.2335 37.5097 31.033 38.6584 31.1642 39.8619C31.3278 41.3615 32.5276 42.4095 34.0797 42.4199C35.673 42.4302 36.9893 41.3822 37.0217 39.8456C37.0438 38.7917 36.9377 37.6429 36.5324 36.6911C35.9236 35.2626 35.0009 33.9688 34.1283 32.4737L34.1269 32.4722Z" fill="#007CFF"/>
</svg>
