<svg width="181" height="184" viewBox="0 0 181 184" fill="none" xmlns="http://www.w3.org/2000/svg">
<ellipse cx="88" cy="173.5" rx="88" ry="10.5" fill="#D0DBFC"/>
<g opacity="0.2" filter="url(#filter0_f_1578_10923)">
<ellipse cx="90" cy="171.5" rx="43" ry="4.5" fill="#262626"/>
</g>
<g clip-path="url(#clip0_1578_10923)">
<path d="M51.2368 86.115C55.3791 86.115 58.2947 85.9205 58.6147 85.9028L58.0636 77.7654C57.868 77.7654 39.0942 78.986 29.4584 75.0942C21.7783 71.9984 13.298 50.505 9.54684 31.506C7.16456 19.4944 8.46237 15.6911 9.45795 14.5059C9.67129 14.2405 10.2402 13.5506 12.4091 13.5506H19.8938C22.0627 20.0428 25.5295 26.5705 30.7563 26.5705H45.8677V18.4154H31.3785C30.134 17.1771 28.0895 12.6307 26.8984 8.36743L26.0628 5.39551H12.3914C8.39126 5.39551 5.26229 6.72226 3.11113 9.32269C-0.426735 13.6037 -0.924525 20.9273 1.49331 33.0981C3.41336 42.7922 6.649 53.4947 10.1513 61.7205C15.0759 73.2721 20.5338 80.3127 26.365 82.6655C33.5474 85.5667 44.161 86.115 51.2368 86.115Z" fill="#FFC727"/>
<path opacity="0.2" d="M33.8496 18.4326H45.8499V26.5877H35.6985L33.8496 18.4326Z" fill="black"/>
<path opacity="0.2" d="M58.6147 85.9021C58.2947 85.9197 55.379 86.1143 51.2367 86.1143C50.5434 86.1143 49.8322 86.1143 49.0856 86.079L47.2544 77.9062C53.2101 78.0831 57.9569 77.7823 58.0635 77.7646L58.6147 85.9021Z" fill="black"/>
<path d="M129.781 86.115C125.639 86.115 122.723 85.9205 122.403 85.9028L122.954 77.7654C123.15 77.7654 141.924 78.986 151.559 75.0942C159.24 71.9984 167.72 50.505 171.471 31.506C173.853 19.4944 172.555 15.6911 171.56 14.5059C171.347 14.2405 170.778 13.5506 168.609 13.5506H161.124C158.955 20.0428 155.488 26.5705 150.262 26.5705H135.15V18.4154H149.639C150.884 17.1771 152.928 12.6307 154.119 8.36743L154.955 5.39551H168.591C172.591 5.39551 175.72 6.72226 177.871 9.32269C181.391 13.586 181.889 20.9097 179.489 33.0804C177.569 42.7745 174.333 53.477 170.831 61.7028C165.906 73.2544 160.448 80.295 154.617 82.6478C147.435 85.549 136.821 86.0974 129.745 86.0974L129.781 86.115Z" fill="#FFC727"/>
<path opacity="0.2" d="M147.168 18.4326H135.168V26.5877H145.319L147.168 18.4326Z" fill="black"/>
<path opacity="0.2" d="M122.403 85.9021C122.723 85.9197 125.639 86.1143 129.781 86.1143C130.474 86.1143 131.186 86.1143 131.932 86.079L133.763 77.9062C127.808 78.0831 123.061 77.7823 122.954 77.7646L122.403 85.9021Z" fill="black"/>
<path d="M50.052 167.436C48.7917 167.436 47.77 168.457 47.77 169.718C47.77 170.978 48.7917 172 50.052 172H130.948C132.208 172 133.23 170.978 133.23 169.718C133.23 168.457 132.208 167.436 130.948 167.436H128.415C126.842 167.436 125.369 166.668 124.468 165.379L122.454 162.498C121.157 160.642 119.343 159.207 117.237 158.373L112.84 156.631C102.43 152.507 95.5934 142.445 95.5934 131.247V106.589C95.5934 103.781 93.317 101.505 90.5088 101.505C87.7007 101.505 85.4243 103.781 85.4243 106.589V131.232C85.4243 142.439 78.5816 152.509 68.1625 156.637L63.7823 158.372C61.6754 159.207 59.8592 160.641 58.5581 162.496L56.5335 165.384C55.6316 166.67 54.1593 167.436 52.5884 167.436H50.052Z" fill="#FFC727"/>
<path d="M82.5977 107.944H98.3848V102.867H82.5977V107.944Z" fill="#FFC727"/>
<path opacity="0.2" d="M82.6152 106.104L98.4023 105.415V102.867H82.6152V106.104Z" fill="black"/>
<path d="M38.241 0C38.241 0 42.2233 65.7892 52.6591 83.9568C63.0771 102.142 85.3177 103.681 90.5089 103.681C95.7002 103.681 117.923 102.124 128.341 83.9568C138.759 65.7892 142.759 0 142.759 0H38.241Z" fill="#FFC727"/>
<path opacity="0.3" d="M82.5621 102.956C73.5841 101.452 60.1082 96.959 52.6591 83.9745C42.2411 65.7892 38.241 0 38.241 0H48.0723C49.4235 13.8159 52.0724 66.5852 59.6104 81.9401C66.2061 95.3669 81.5131 102.567 82.5621 102.956Z" fill="white"/>
<path opacity="0.2" d="M125.905 167.436H55.0947L57.0503 164.641L124 164.5L125.905 167.436Z" fill="black"/>
</g>
<defs>
<filter id="filter0_f_1578_10923" x="43" y="163" width="94" height="17" filterUnits="userSpaceOnUse" color-interpolation-filters="sRGB">
<feFlood flood-opacity="0" result="BackgroundImageFix"/>
<feBlend mode="normal" in="SourceGraphic" in2="BackgroundImageFix" result="shape"/>
<feGaussianBlur stdDeviation="2" result="effect1_foregroundBlur_1578_10923"/>
</filter>
<clipPath id="clip0_1578_10923">
<rect width="181" height="172" fill="white"/>
</clipPath>
</defs>
</svg>
