<svg width="36" height="30" viewBox="0 0 36 30" fill="none" xmlns="http://www.w3.org/2000/svg">
<path d="M26.7449 21.5959C26.7449 22.2787 26.4737 22.9335 25.9908 23.4164C25.508 23.8992 24.8532 24.1704 24.1704 24.1704H3.57449C2.89169 24.1704 2.23686 23.8992 1.75405 23.4164C1.27124 22.9335 1 22.2787 1 21.5959V3.57449C1 2.89169 1.27124 2.23686 1.75405 1.75405C2.23686 1.27124 2.89169 1 3.57449 1H10.0107L12.5852 4.86173H24.1704C24.8532 4.86173 25.508 5.13297 25.9908 5.61579C26.4737 6.0986 26.7449 6.75343 26.7449 7.43622V21.5959Z" stroke="#FFB800" stroke-width="2" stroke-linecap="round" stroke-linejoin="round"/>
<path d="M25.6461 11.7077C26.0195 10.9892 27.0474 10.9892 27.4208 11.7077L33.5685 23.5389C33.9144 24.2046 33.4313 25 32.6811 25H20.3858C19.6356 25 19.1525 24.2046 19.4984 23.5389L25.6461 11.7077Z" fill="white"/>
<path d="M26.5334 16.3825V19.255M26.5334 22.1275H26.5401M25.3878 12.6914L19.713 22.8456C19.596 23.0628 19.5341 23.309 19.5335 23.5598C19.5328 23.8106 19.5934 24.0572 19.7093 24.2751C19.8251 24.4929 19.9922 24.6745 20.1939 24.8017C20.3955 24.9289 20.6247 24.9972 20.8587 25H32.2082C32.4422 24.9972 32.6714 24.9289 32.873 24.8017C33.0747 24.6745 33.2417 24.4929 33.3576 24.2751C33.4735 24.0572 33.5341 23.8106 33.5334 23.5598C33.5328 23.309 33.4709 23.0628 33.3539 22.8456L27.6791 12.6914C27.5597 12.4803 27.3915 12.3058 27.1908 12.1847C26.9902 12.0636 26.7637 12 26.5334 12C26.3032 12 26.0767 12.0636 25.8761 12.1847C25.6754 12.3058 25.5072 12.4803 25.3878 12.6914Z" stroke="#FFB800" stroke-width="2" stroke-linecap="round" stroke-linejoin="round"/>
</svg>
